{"asset":{"copyright":"","generator":"Source 2 Viewer 17.0.0.0 - https://valveresourceformat.github.io","version":"2.0"},"extensionsUsed":["KHR_materials_specular"],"accessors":[{"bufferView":0,"componentType":5126,"count":669,"max":[3.6619672775268555,51.54487609863281,132.104248046875],"min":[-64.54985046386719,-48.47773361206055,23.492671966552734],"type":"VEC3"},{"bufferView":1,"componentType":5126,"count":669,"max":[0.9965819120407104,0.9934995770454407],"min":[0.0015564439818263054,0.011749626137316227],"type":"VEC2"},{"bufferView":2,"componentType":5126,"count":669,"max":[0.9972413182258606,0.9759000539779663,0.9918366074562073],"min":[-0.998073399066925,-0.9818313717842102,-0.9934532642364502],"type":"VEC3"},{"bufferView":3,"componentType":5126,"count":669,"type":"VEC4"},{"bufferView":4,"componentType":5123,"count":669,"type":"VEC4"},{"bufferView":5,"componentType":5126,"count":669,"type":"VEC4"},{"bufferView":6,"componentType":5125,"count":3372,"type":"SCALAR"},{"name":"Bind Matrices","bufferView":7,"componentType":5126,"count":20,"type":"MAT4"}],"bufferViews":[{"buffer":0,"byteLength":8028,"byteOffset":34896,"target":34962},{"buffer":0,"byteLength":5352,"byteOffset":50952,"target":34962},{"buffer":0,"byteLength":8028,"byteOffset":42924,"target":34962},{"buffer":0,"byteLength":10704,"byteOffset":13488,"target":34962},{"buffer":0,"byteLength":5352,"byteOffset":56304,"byteStride":8,"target":34962},{"buffer":0,"byteLength":10704,"byteOffset":24192,"target":34962},{"buffer":0,"byteLength":13488,"target":34963},{"buffer":0,"byteLength":1280,"byteOffset":61656}],"buffers":[{"byteLength":62936,"uri":"drow_cape.bin"}],"images":[{"name":"drow_cape_color_psd_eb9aee72.vtex","uri":"drow_cape_color_psd_eb9aee72.png"},{"name":"drow_cape_metalnessmask_psd_15f307f4.vtex","uri":"drow_cape_metalnessmask_psd_15f307f4.png"},{"name":"drow_cape_specmask_psd_69aabc65.vtex","uri":"drow_cape_specmask_psd_69aabc65.png"},{"name":"drow_cape_normal_psd_90405d5e.vtex","uri":"drow_cape_normal_psd_90405d5e.png"},{"name":"drow_cape_metalnessmask_psd_15f307f4_orm_1282943673.png","uri":"drow_cape_metalnessmask_psd_15f307f4_orm_1282943673.png"}],"materials":[{"extensions":{"KHR_materials_specular":{"specularColorFactor":[0.717647,0.870588,1],"specularTexture":{"index":2}}},"extras":{"vmat":{"Name":"materials/models/heroes/drow/drow_cape.vmat","ShaderName":"hero.vfx","IntParams":{"F_ALPHA_TEST":1,"F_DIFFUSE_WARP":1,"F_MASKS_1":1,"F_MASKS_2":1,"F_MORPH_SUPPORTED":1,"F_SPECULAR_CUBE_MAP":1,"F_USE_STATUS_EFFECTS_PROXY":1},"FloatParams":{"g_flAlphaTestReference":0.5,"g_flAmbientScale":1,"g_flBloomScale":0.089,"g_flBloomShift":0,"g_flCloakBlurAmount":0.005,"g_flCloakIntensity":0.85,"g_flCloakRefractAmount":0.1,"g_flCubeMapScalar":3,"g_flDetail2BlendFactor":0,"g_flDiffuseModulationAmount":1,"g_flDiffuseWarpBlendToFull":0,"g_flEnvMapBlendToFull":0,"g_flFresnelModulatesAlpha":0,"g_flMaterialCloakFactor":0,"g_flMetalnessBlendToFull":0,"g_flReflectionsTintByBaseBlendToNone":0,"g_flRimLightScale":5,"g_flSelfIllumBlendToFull":0,"g_flSpecularBlendToFull":0,"g_flSpecularExponent":40,"g_flSpecularExponentBlendToFull":0,"g_flSpecularScale":10,"g_flTexCoordRotation":0},"VectorParams":{"g_vBloomColor":[1,1,1,0],"g_vCloakColorTint":[1,1,1,0],"g_vDetail2ColorTint":[1,1,1,0],"g_vDetailTexCoordScale":[1,1,0,0],"g_vRimLightColor":[1,1,1,1],"g_vSpecularColor":[0.717647,0.870588,1,0],"g_vTexCoordOffset":[0,0,0,0],"g_vTexCoordScale":[1,1,0,0],"TextureDetailMask":[0,0,0,0],"TextureDiffuseWarpMask":[0,0,0,0],"TextureSelfIllumMask":[0,0,0,0],"TextureTranslucency":[1,1,1,0]},"TextureParams":{"g_tColor":"materials/models/heroes/drow/drow_cape_color_psd_eb9aee72.vtex","g_tCubeMap":"materials/models/cubemaps/cube_metal_grey_cube_tga_3e998d35.vtex","g_tDetail2":"materials/default/default_detail2_tga_70788555.vtex","g_tDiffuseWarp":"materials/models/heroes/drow/diffusewarp_diffusewarp_psd_b1607356.vtex","g_tFresnelWarp":"materials/default/default_fresnelwarprim_tga_d9279d65.vtex","g_tMasks1":"materials/models/heroes/drow/drow_cape_metalnessmask_psd_15f307f4.vtex","g_tMasks2":"materials/models/heroes/drow/drow_cape_specmask_psd_69aabc65.vtex","g_tNormal":"materials/models/heroes/drow/drow_cape_normal_psd_90405d5e.vtex"}}},"name":"drow_cape","alphaMode":"MASK","emissiveTexture":{"index":1},"normalTexture":{"index":3},"occlusionTexture":{"index":4},"pbrMetallicRoughness":{"baseColorTexture":{"index":0},"metallicRoughnessTexture":{"index":4}}}],"meshes":[{"extras":{},"name":"models/heroes/drow/drow_cape.vmdl_c.drow_cape","primitives":[{"attributes":{"POSITION":0,"TEXCOORD_0":1,"NORMAL":2,"TANGENT":3,"JOINTS_0":4,"WEIGHTS_0":5},"indices":6,"material":0}]}],"nodes":[{"name":"models/heroes/drow/drow_cape.vmdl_c","children":[1],"matrix":[3.027916E-09,0,0.025399996,0,0.025399996,3.027916E-09,0,0,0,0.025399996,3.027916E-09,0,0,0,0,1]},{"name":"spine3","children":[2,7,12,17,19,20],"rotation":[-2.2910228E-08,-0.7788891,2.2910228E-08,0.6271616],"translation":[1.5296822,-1.4210855E-14,115.867195]},{"name":"cape_R0C0","children":[3],"rotation":[0.15674162,0.95217633,-0.042602118,-0.25879982],"translation":[9.44429,13.239626,13.548616]},{"name":"cape_R1C0","children":[4],"rotation":[-0.7008373,0.0034220887,0.0034829387,0.71330446],"translation":[21.87558,6.1035156E-05,-7.247925E-05]},{"name":"cape_R2C0","children":[5],"rotation":[7.264366E-08,7.73003E-08,0.0042687943,0.9999909],"translation":[21.639164,-0.15317535,0.00016021729]},{"name":"cape_R3C0","children":[6],"rotation":[-5.5879226E-09,7.2643E-08,0.0019385548,0.9999981],"translation":[25.451183,0.010543823,0.00021743774]},{"name":"cape_R4C0","rotation":[-2.793951E-08,6.5192136E-09,2.980214E-08,1],"translation":[19.150944,-0.013977051,0.042526245]},{"name":"cape_R0C1","children":[8],"rotation":[1.02497275E-07,0.9597307,-1.02497275E-07,-0.28092185],"translation":[1.4574509,2.728484E-12,21.058414]},{"name":"cape_R1C1","children":[9],"rotation":[-0.7071019,-0.0026192323,-0.0026192323,0.70710194],"translation":[10.886673,4.4243916E-07,-7.6293945E-05]},{"name":"cape_R2C1","children":[10],"rotation":[-1.0477208E-09,2.0874091E-10,-1.4901119E-08,1],"translation":[20.073227,0.00023651123,8.184579E-07]},{"name":"cape_R3C1","children":[11],"rotation":[1.49004675E-08,1.8685399E-10,0,1],"translation":[29.920204,0.00038909912,1.216451E-06]},{"name":"cape_R4C1","rotation":[1.49004675E-08,1.8685173E-10,0,1],"translation":[16.96188,0.0005264282,6.826731E-07]},{"name":"cape_R0C2","children":[13],"rotation":[0.9522193,0.15703343,-0.25846112,-0.04262396],"translation":[9.444191,-13.23965,13.548661]},{"name":"cape_R1C2","children":[14],"rotation":[-0.0007961386,-0.67441434,0.7383093,-0.008002312],"translation":[-20.239525,1.5258789E-05,-2.670288E-05]},{"name":"cape_R2C2","children":[15],"rotation":[2.5611313E-09,-6.9849104E-10,-1.4901131E-08,1],"translation":[23.22821,0.00016403198,-0.00016784668]},{"name":"cape_R3C2","children":[16],"rotation":[1.02445E-08,-1.0069883E-08,-7.450547E-09,1],"translation":[25.176895,0.0002746582,-0.00030899048]},{"name":"cape_R4C2","rotation":[-0.0012174258,-0.0112305125,0.0035751637,0.9999298],"translation":[18.818523,-0.016906738,-0.054512024]},{"name":"clavicle_R","children":[18],"rotation":[0.56959677,0.418998,-0.55464435,-0.43859994],"translation":[7.2427673,-2.84982,1.2899284]},{"name":"bicep_R","rotation":[-0.5264615,0.35352504,0.42741725,0.64433914],"translation":[-9.379656,2.861023E-05,-0.00016021729]},{"name":"clavicle_L","rotation":[0.5546443,0.43859977,0.5695968,0.4189982],"translation":[7.24279,2.8498204,1.2899151]},{"name":"head","rotation":[-5.482856E-08,0.77888906,2.2092521E-13,0.62716174],"translation":[19.961227,6.001583E-07,-3.2299747]},{"name":"models/heroes/drow/drow_cape.vmdl_c.drow_cape","mesh":0,"skin":0}],"samplers":[{"magFilter":9729,"minFilter":9987}],"scenes":[{"name":"drow_cape.vmdl_c","nodes":[0,21]}],"skins":[{"inverseBindMatrices":7,"joints":[1,2,7,12,3,8,13,4,9,14,5,10,15,17,6,11,16,19,20,18]}],"textures":[{"name":"drow_cape_color_psd_eb9aee72.vtex","sampler":0,"source":0},{"name":"drow_cape_metalnessmask_psd_15f307f4.vtex","sampler":0,"source":1},{"name":"drow_cape_specmask_psd_69aabc65.vtex","sampler":0,"source":2},{"name":"drow_cape_normal_psd_90405d5e.vtex","sampler":0,"source":3},{"name":"drow_cape_metalnessmask_psd_15f307f4_orm_1282943673.png","sampler":0,"source":4}]}