{"asset":{"copyright":"","generator":"Source 2 Viewer 17.0.0.0 - https://valveresourceformat.github.io","version":"2.0"},"extensionsUsed":["KHR_materials_specular"],"accessors":[{"bufferView":0,"componentType":5126,"count":2025,"max":[13.99215030670166,23.023244857788086,133.47706604003906],"min":[-20.83035659790039,-23.02324676513672,54.3270263671875],"type":"VEC3"},{"bufferView":1,"componentType":5126,"count":2025,"max":[0.9936521649360657,0.9928281307220459],"min":[0.009613330475986004,0.005249183624982834],"type":"VEC2"},{"bufferView":2,"componentType":5126,"count":2025,"max":[1,0.9895864725112915,0.9918366074562073],"min":[-0.9656401872634888,-0.9941523671150208,-0.9998700022697449],"type":"VEC3"},{"bufferView":3,"componentType":5126,"count":2025,"type":"VEC4"},{"bufferView":4,"componentType":5123,"count":2025,"type":"VEC4"},{"bufferView":5,"componentType":5126,"count":2025,"type":"VEC4"},{"bufferView":6,"componentType":5125,"count":7602,"type":"SCALAR"},{"name":"Bind Matrices","bufferView":7,"componentType":5126,"count":22,"type":"MAT4"}],"bufferViews":[{"buffer":0,"byteLength":24300,"byteOffset":95208,"target":34962},{"buffer":0,"byteLength":16200,"byteOffset":143808,"target":34962},{"buffer":0,"byteLength":24300,"byteOffset":119508,"target":34962},{"buffer":0,"byteLength":32400,"target":34962},{"buffer":0,"byteLength":16200,"byteOffset":160008,"byteStride":8,"target":34962},{"buffer":0,"byteLength":32400,"byteOffset":32400,"target":34962},{"buffer":0,"byteLength":30408,"byteOffset":64800,"target":34963},{"buffer":0,"byteLength":1408,"byteOffset":176208}],"buffers":[{"byteLength":177616,"uri":"drow_armor.bin"}],"images":[{"name":"drow_shoulder_color_psd_3d989209.vtex","uri":"drow_shoulder_color_psd_3d989209.png"},{"name":"drow_base_detailmask_png_141c2c65.vtex","uri":"drow_base_detailmask_png_141c2c65.png"},{"name":"drow_shoulder_specmask_psd_67fca46e.vtex","uri":"drow_shoulder_specmask_psd_67fca46e.png"},{"name":"drow_shoulder_normal_psd_52432ed3.vtex","uri":"drow_shoulder_normal_psd_52432ed3.png"},{"name":"drow_base_detailmask_png_141c2c65_orm_3383649138.png","uri":"drow_base_detailmask_png_141c2c65_orm_3383649138.png"}],"materials":[{"extensions":{"KHR_materials_specular":{"specularColorFactor":[0.639216,0.901961,1],"specularTexture":{"index":2}}},"extras":{"vmat":{"Name":"materials/models/heroes/drow/drow_shoulder.vmat","ShaderName":"hero.vfx","IntParams":{"F_ALPHA_TEST":1,"F_DIFFUSE_WARP":1,"F_MASKS_1":1,"F_MASKS_2":1,"F_MORPH_SUPPORTED":1,"F_SPECULAR_CUBE_MAP":1,"F_USE_STATUS_EFFECTS_PROXY":1},"FloatParams":{"g_flAlphaTestReference":0.5,"g_flAmbientScale":1,"g_flBloomScale":0.089,"g_flBloomShift":0,"g_flCloakBlurAmount":0.005,"g_flCloakIntensity":0.85,"g_flCloakRefractAmount":0.1,"g_flCubeMapScalar":3,"g_flDetail2BlendFactor":0,"g_flDiffuseModulationAmount":1,"g_flDiffuseWarpBlendToFull":0,"g_flEnvMapBlendToFull":0,"g_flFresnelModulatesAlpha":0,"g_flMaterialCloakFactor":0,"g_flMetalnessBlendToFull":0,"g_flReflectionsTintByBaseBlendToNone":0,"g_flRimLightScale":3,"g_flSelfIllumBlendToFull":0,"g_flSpecularBlendToFull":0,"g_flSpecularExponent":40,"g_flSpecularExponentBlendToFull":0,"g_flSpecularScale":10,"g_flTexCoordRotation":0},"VectorParams":{"g_vBloomColor":[1,1,1,0],"g_vCloakColorTint":[1,1,1,0],"g_vDetail2ColorTint":[1,1,1,0],"g_vDetailTexCoordScale":[1,1,0,0],"g_vRimLightColor":[1,1,1,1],"g_vSpecularColor":[0.639216,0.901961,1,0],"g_vTexCoordOffset":[0,0,0,0],"g_vTexCoordScale":[1,1,0,0],"TextureDiffuseWarpMask":[0,0,0,0],"TextureSelfIllumMask":[0,0,0,0]},"TextureParams":{"g_tColor":"materials/models/heroes/drow/drow_shoulder_color_psd_3d989209.vtex","g_tCubeMap":"materials/models/cubemaps/cube_metal_grey_cube_tga_3e998d35.vtex","g_tDetail2":"materials/default/default_detail2_tga_70788555.vtex","g_tDiffuseWarp":"materials/models/heroes/drow/diffusewarp_diffusewarp_psd_b1607356.vtex","g_tFresnelWarp":"materials/default/default_fresnelwarprim_tga_d9279d65.vtex","g_tMasks1":"materials/models/heroes/drow/drow_base_detailmask_png_141c2c65.vtex","g_tMasks2":"materials/models/heroes/drow/drow_shoulder_specmask_psd_67fca46e.vtex","g_tNormal":"materials/models/heroes/drow/drow_shoulder_normal_psd_52432ed3.vtex"}}},"name":"drow_shoulder","alphaMode":"MASK","emissiveTexture":{"index":1},"normalTexture":{"index":3},"occlusionTexture":{"index":4},"pbrMetallicRoughness":{"baseColorTexture":{"index":0},"metallicRoughnessTexture":{"index":4}}}],"meshes":[{"extras":{},"name":"models/heroes/drow/drow_armor.vmdl_c.drow_armor","primitives":[{"attributes":{"POSITION":0,"TEXCOORD_0":1,"NORMAL":2,"TANGENT":3,"JOINTS_0":4,"WEIGHTS_0":5},"indices":6,"material":0}]}],"nodes":[{"name":"models/heroes/drow/drow_armor.vmdl_c","children":[1],"matrix":[3.027916E-09,0,0.025399996,0,0.025399996,3.027916E-09,0,0,0,0.025399996,3.027916E-09,0,0,0,0,1]},{"name":"root","children":[2,15,18,21],"translation":[1.234973,0,88.21597]},{"name":"spine1","children":[3],"rotation":[1.5271326E-08,-0.7080875,-1.5271327E-08,0.7061247],"translation":[1.326796,-1.082745E-13,6.136612]},{"name":"spine2","children":[4],"rotation":[-3.9764216E-15,-0.06087426,5.3218034E-09,0.99814546],"translation":[13.575127,5.933848E-07,-1.9073486E-06]},{"name":"spine3","children":[5,9,13],"rotation":[-9.724382E-16,-0.045179322,3.9496992E-09,0.99897885],"translation":[8.001579,3.4704613E-07,-7.6293945E-06]},{"name":"clavicle_L","children":[6],"rotation":[0.5546443,0.43859977,0.5695968,0.4189982],"translation":[7.2428513,2.8498235,1.2899055]},{"name":"bicep_L","children":[7,8],"rotation":[-0.52646136,0.3535251,0.42741713,0.64433926],"translation":[9.37965,-7.6293945E-05,0.00035858154]},{"name":"thumb_0_L","rotation":[0.895818,0.13690196,-0.42113024,0.037647486],"translation":[47.68467,1.8294449,-12.977663]},{"name":"deltoid_0_l","rotation":[-1.490111E-08,-5.9604425E-08,1.6763735E-08,1],"translation":[-0.0005187988,-0.00022125244,-8.940697E-07]},{"name":"clavicle_R","children":[10],"rotation":[0.56959677,0.41899794,-0.55464435,-0.43859994],"translation":[7.2428284,-2.8498216,1.2899208]},{"name":"bicep_R","children":[11,12],"rotation":[-0.5264615,0.35352504,0.42741725,0.64433914],"translation":[-9.37966,4.196167E-05,-0.00022888184]},{"name":"thumb_0_R","rotation":[0.89581794,0.13690196,-0.42113027,0.037647452],"translation":[-47.68473,-1.8295212,12.977633]},{"name":"deltoid_0_r","rotation":[-4.097809E-08,0,4.004677E-08,1],"translation":[0.00036621094,0.00016784668,-6.1392784E-06]},{"name":"neck1","children":[14],"rotation":[-9.410056E-15,0.13346164,-1.1667589E-08,0.991054],"translation":[8.186356,3.495918E-07,-4.9591064E-05]},{"name":"head","rotation":[-6.342583E-08,0.6882191,1.90979E-13,0.72550297],"translation":[12.210152,5.329821E-07,2.527237E-05]},{"name":"thigh_L","children":[16,17],"rotation":[0.035505507,0.7105719,0.080779284,0.69807],"translation":[0.19442308,8.31019,0.07203674]},{"name":"knee_L","rotation":[1.8662307E-09,0.06196607,-2.7497746E-08,0.9980783],"translation":[40.441692,9.536743E-06,-2.7418137E-06]},{"name":"leg_upper_0_l","rotation":[0,6.705518E-08,2.8230701E-08,1],"translation":[-7.6293945E-05,1.5258789E-05,2.3245811E-06]},{"name":"thigh_R","children":[19,20],"rotation":[-0.0807793,-0.6980701,0.035505306,0.71057177],"translation":[0.194422,-8.310188,0.0719223]},{"name":"knee_R","rotation":[-1.5862977E-08,0.061966002,-3.061788E-09,0.9980783],"translation":[-40.44169,5.722046E-06,4.7683716E-07]},{"name":"leg_upper_0_r","rotation":[1.583249E-08,2.4214401E-08,2.3341286E-08,1],"translation":[-2.2888184E-05,7.6293945E-06,-2.026558E-06]},{"name":"skirt_0","children":[22],"rotation":[0.49963415,0.5003657,-0.5003657,0.49963415],"translation":[11.222125,-2.3020625E-06,-11.586678]},{"name":"skirt_1","rotation":[2.1957367E-08,-2.2081608E-08,-0.010353527,0.9999464],"translation":[10.074287,-9.536743E-07,1.6971926E-06]},{"name":"models/heroes/drow/drow_armor.vmdl_c.drow_armor","mesh":0,"skin":0}],"samplers":[{"magFilter":9729,"minFilter":9987}],"scenes":[{"name":"drow_armor.vmdl_c","nodes":[0,23]}],"skins":[{"inverseBindMatrices":7,"joints":[1,2,3,4,5,9,15,18,6,13,10,21,16,17,19,20,7,8,14,11,12,22]}],"textures":[{"name":"drow_shoulder_color_psd_3d989209.vtex","sampler":0,"source":0},{"name":"drow_base_detailmask_png_141c2c65.vtex","sampler":0,"source":1},{"name":"drow_shoulder_specmask_psd_67fca46e.vtex","sampler":0,"source":2},{"name":"drow_shoulder_normal_psd_52432ed3.vtex","sampler":0,"source":3},{"name":"drow_base_detailmask_png_141c2c65_orm_3383649138.png","sampler":0,"source":4}]}