{"asset":{"copyright":"","generator":"Source 2 Viewer 17.0.0.0 - https://valveresourceformat.github.io","version":"2.0"},"extensionsUsed":["KHR_materials_specular"],"accessors":[{"name":"Animation.Input","bufferView":0,"componentType":5126,"count":1,"max":[0],"min":[0],"type":"SCALAR"},{"name":"Animation.Output","bufferView":1,"componentType":5126,"count":1,"type":"VEC4"},{"name":"Animation.Input","bufferView":2,"componentType":5126,"count":1,"max":[0],"min":[0],"type":"SCALAR"},{"name":"Animation.Output","bufferView":3,"componentType":5126,"count":1,"max":[0,0,0],"min":[0,0,0],"type":"VEC3"},{"name":"Animation.Input","bufferView":4,"componentType":5126,"count":1,"max":[0],"min":[0],"type":"SCALAR"},{"name":"Animation.Output","bufferView":5,"componentType":5126,"count":1,"max":[1,1,1],"min":[1,1,1],"type":"VEC3"},{"name":"Animation.Input","bufferView":6,"componentType":5126,"count":15,"max":[0.46666666865348816],"min":[0],"type":"SCALAR"},{"name":"Animation.Output","bufferView":7,"componentType":5126,"count":15,"type":"VEC4"},{"name":"Animation.Input","bufferView":8,"componentType":5126,"count":16,"max":[0.5333333611488342],"min":[0],"type":"SCALAR"},{"name":"Animation.Output","bufferView":9,"componentType":5126,"count":16,"max":[9.5367431640625E-07,4.214832305908203,-24.146921157836914],"min":[-1.9073486328125E-06,-31.063556671142578,-58.054969787597656],"type":"VEC3"},{"name":"Animation.Input","bufferView":10,"componentType":5126,"count":1,"max":[0],"min":[0],"type":"SCALAR"},{"name":"Animation.Output","bufferView":11,"componentType":5126,"count":1,"max":[1,1,1],"min":[1,1,1],"type":"VEC3"},{"name":"Animation.Input","bufferView":12,"componentType":5126,"count":20,"max":[0.6333333253860474],"min":[0],"type":"SCALAR"},{"name":"Animation.Output","bufferView":13,"componentType":5126,"count":20,"type":"VEC4"},{"name":"Animation.Input","bufferView":14,"componentType":5126,"count":25,"max":[0.800000011920929],"min":[0],"type":"SCALAR"},{"name":"Animation.Output","bufferView":15,"componentType":5126,"count":25,"max":[7.027602195739746,0,-28.42795753479004],"min":[-5.917736053466797,-36.473297119140625,-61.1671142578125],"type":"VEC3"},{"name":"Animation.Input","bufferView":16,"componentType":5126,"count":1,"max":[0],"min":[0],"type":"SCALAR"},{"name":"Animation.Output","bufferView":17,"componentType":5126,"count":1,"max":[1,1,1],"min":[1,1,1],"type":"VEC3"},{"name":"Animation.Input","bufferView":18,"componentType":5126,"count":20,"max":[0.6666666865348816],"min":[0],"type":"SCALAR"},{"name":"Animation.Output","bufferView":19,"componentType":5126,"count":20,"type":"VEC4"},{"name":"Animation.Input","bufferView":20,"componentType":5126,"count":18,"max":[0.5666666626930237],"min":[0],"type":"SCALAR"},{"name":"Animation.Output","bufferView":21,"componentType":5126,"count":18,"max":[-7.709948539733887,3.403491973876953,-29.37276268005371],"min":[-11.637182235717773,-34.09732437133789,-64.38692474365234],"type":"VEC3"},{"name":"Animation.Input","bufferView":22,"componentType":5126,"count":1,"max":[0],"min":[0],"type":"SCALAR"},{"name":"Animation.Output","bufferView":23,"componentType":5126,"count":1,"max":[1,1,1],"min":[1,1,1],"type":"VEC3"},{"name":"Animation.Input","bufferView":24,"componentType":5126,"count":1,"max":[0],"min":[0],"type":"SCALAR"},{"name":"Animation.Output","bufferView":25,"componentType":5126,"count":1,"type":"VEC4"},{"name":"Animation.Input","bufferView":26,"componentType":5126,"count":19,"max":[0.9333333373069763],"min":[0],"type":"SCALAR"},{"name":"Animation.Output","bufferView":27,"componentType":5126,"count":19,"max":[0,0,-19.65752410888672],"min":[0,0,-48.905372619628906],"type":"VEC3"},{"name":"Animation.Input","bufferView":28,"componentType":5126,"count":1,"max":[0],"min":[0],"type":"SCALAR"},{"name":"Animation.Output","bufferView":29,"componentType":5126,"count":1,"max":[1,1,1],"min":[1,1,1],"type":"VEC3"},{"name":"Animation.Input","bufferView":30,"componentType":5126,"count":1,"max":[0],"min":[0],"type":"SCALAR"},{"name":"Animation.Output","bufferView":31,"componentType":5126,"count":1,"type":"VEC4"},{"name":"Animation.Input","bufferView":32,"componentType":5126,"count":1,"max":[0],"min":[0],"type":"SCALAR"},{"name":"Animation.Output","bufferView":33,"componentType":5126,"count":1,"max":[17.06906509399414,-1.4922261470928788E-06,-3.814697265625E-06],"min":[17.06906509399414,-1.4922261470928788E-06,-3.814697265625E-06],"type":"VEC3"},{"name":"Animation.Input","bufferView":34,"componentType":5126,"count":1,"max":[0],"min":[0],"type":"SCALAR"},{"name":"Animation.Output","bufferView":35,"componentType":5126,"count":1,"max":[1,1,1],"min":[1,1,1],"type":"VEC3"},{"name":"Animation.Input","bufferView":36,"componentType":5126,"count":1,"max":[0],"min":[0],"type":"SCALAR"},{"name":"Animation.Output","bufferView":37,"componentType":5126,"count":1,"type":"VEC4"},{"name":"Animation.Input","bufferView":38,"componentType":5126,"count":26,"max":[0.8333333134651184],"min":[0],"type":"SCALAR"},{"name":"Animation.Output","bufferView":39,"componentType":5126,"count":26,"max":[0,0,-23.46559715270996],"min":[0,0,-29.92185401916504],"type":"VEC3"},{"name":"Animation.Input","bufferView":40,"componentType":5126,"count":1,"max":[0],"min":[0],"type":"SCALAR"},{"name":"Animation.Output","bufferView":41,"componentType":5126,"count":1,"max":[1,1,1],"min":[1,1,1],"type":"VEC3"},{"name":"Animation.Input","bufferView":42,"componentType":5126,"count":1,"max":[0],"min":[0],"type":"SCALAR"},{"name":"Animation.Output","bufferView":43,"componentType":5126,"count":1,"type":"VEC4"},{"name":"Animation.Input","bufferView":44,"componentType":5126,"count":28,"max":[0.8999999761581421],"min":[0],"type":"SCALAR"},{"name":"Animation.Output","bufferView":45,"componentType":5126,"count":28,"max":[5.671138763427734,1.0964545253955293E-06,3.814697265625E-06],"min":[-12.541971206665039,-4.95786480314564E-07,-1.9073486328125E-06],"type":"VEC3"},{"name":"Animation.Input","bufferView":46,"componentType":5126,"count":1,"max":[0],"min":[0],"type":"SCALAR"},{"name":"Animation.Output","bufferView":47,"componentType":5126,"count":1,"max":[1,1,1],"min":[1,1,1],"type":"VEC3"},{"name":"Animation.Input","bufferView":48,"componentType":5126,"count":1,"max":[0],"min":[0],"type":"SCALAR"},{"name":"Animation.Output","bufferView":49,"componentType":5126,"count":1,"type":"VEC4"},{"name":"Animation.Input","bufferView":50,"componentType":5126,"count":30,"max":[0.9666666388511658],"min":[0],"type":"SCALAR"},{"name":"Animation.Output","bufferView":51,"componentType":5126,"count":30,"max":[10.649765014648438,6.004825081618037E-07,3.814697265625E-06],"min":[-6.868709564208984,-9.310322184319375E-07,-5.7220458984375E-06],"type":"VEC3"},{"name":"Animation.Input","bufferView":52,"componentType":5126,"count":1,"max":[0],"min":[0],"type":"SCALAR"},{"name":"Animation.Output","bufferView":53,"componentType":5126,"count":1,"max":[1,1,1],"min":[1,1,1],"type":"VEC3"},{"bufferView":54,"componentType":5126,"count":32224,"max":[34.198482513427734,41.87740707397461,5.281682968139648],"min":[-40.1751823425293,-49.06684875488281,-56.29241943359375],"type":"VEC3"},{"bufferView":55,"componentType":5126,"count":32224,"max":[0.9984740614891052,0.9984740614891052],"min":[0,0],"type":"VEC2"},{"bufferView":56,"componentType":5126,"count":32224,"max":[0.9998700022697449,0.9998700022697449,1],"min":[-1,-1,-1],"type":"VEC3"},{"bufferView":57,"componentType":5126,"count":32224,"type":"VEC4"},{"bufferView":58,"componentType":5123,"count":32224,"type":"VEC4"},{"bufferView":59,"componentType":5126,"count":32224,"type":"VEC4"},{"bufferView":60,"componentType":5125,"count":14154,"type":"SCALAR"},{"bufferView":61,"componentType":5125,"count":80328,"type":"SCALAR"},{"bufferView":62,"componentType":5125,"count":144,"type":"SCALAR"},{"bufferView":63,"componentType":5125,"count":15816,"type":"SCALAR"},{"name":"Bind Matrices","bufferView":64,"componentType":5126,"count":9,"type":"MAT4"}],"animations":[{"name":"drow_glacier_spawn","channels":[{"sampler":0,"target":{"node":1,"path":"rotation"}},{"sampler":1,"target":{"node":1,"path":"translation"}},{"sampler":2,"target":{"node":1,"path":"scale"}},{"sampler":3,"target":{"node":2,"path":"rotation"}},{"sampler":4,"target":{"node":2,"path":"translation"}},{"sampler":5,"target":{"node":2,"path":"scale"}},{"sampler":6,"target":{"node":3,"path":"rotation"}},{"sampler":7,"target":{"node":3,"path":"translation"}},{"sampler":8,"target":{"node":3,"path":"scale"}},{"sampler":9,"target":{"node":4,"path":"rotation"}},{"sampler":10,"target":{"node":4,"path":"translation"}},{"sampler":11,"target":{"node":4,"path":"scale"}},{"sampler":12,"target":{"node":5,"path":"rotation"}},{"sampler":13,"target":{"node":5,"path":"translation"}},{"sampler":14,"target":{"node":5,"path":"scale"}},{"sampler":15,"target":{"node":6,"path":"rotation"}},{"sampler":16,"target":{"node":6,"path":"translation"}},{"sampler":17,"target":{"node":6,"path":"scale"}},{"sampler":18,"target":{"node":7,"path":"rotation"}},{"sampler":19,"target":{"node":7,"path":"translation"}},{"sampler":20,"target":{"node":7,"path":"scale"}},{"sampler":21,"target":{"node":8,"path":"rotation"}},{"sampler":22,"target":{"node":8,"path":"translation"}},{"sampler":23,"target":{"node":8,"path":"scale"}},{"sampler":24,"target":{"node":9,"path":"rotation"}},{"sampler":25,"target":{"node":9,"path":"translation"}},{"sampler":26,"target":{"node":9,"path":"scale"}}],"samplers":[{"input":0,"output":1},{"input":2,"output":3},{"input":4,"output":5},{"input":6,"output":7},{"input":8,"output":9},{"input":10,"output":11},{"input":12,"output":13},{"input":14,"output":15},{"input":16,"output":17},{"input":18,"output":19},{"input":20,"output":21},{"input":22,"output":23},{"input":24,"output":25},{"input":26,"output":27},{"input":28,"output":29},{"input":30,"output":31},{"input":32,"output":33},{"input":34,"output":35},{"input":36,"output":37},{"input":38,"output":39},{"input":40,"output":41},{"input":42,"output":43},{"input":44,"output":45},{"input":46,"output":47},{"input":48,"output":49},{"input":50,"output":51},{"input":52,"output":53}]}],"bufferViews":[{"buffer":0,"byteLength":4,"byteOffset":2766392},{"buffer":0,"byteLength":16,"byteOffset":2766164},{"buffer":0,"byteLength":4,"byteOffset":2766396},{"buffer":0,"byteLength":12,"byteOffset":2766260},{"buffer":0,"byteLength":4,"byteOffset":2766400},{"buffer":0,"byteLength":12,"byteOffset":2766272},{"buffer":0,"byteLength":60,"byteOffset":2766104},{"buffer":0,"byteLength":240,"byteOffset":2764420},{"buffer":0,"byteLength":64,"byteOffset":2766040},{"buffer":0,"byteLength":192,"byteOffset":2765104},{"buffer":0,"byteLength":4,"byteOffset":2766404},{"buffer":0,"byteLength":12,"byteOffset":2766284},{"buffer":0,"byteLength":80,"byteOffset":2765732},{"buffer":0,"byteLength":320,"byteOffset":2763168},{"buffer":0,"byteLength":100,"byteOffset":2765632},{"buffer":0,"byteLength":300,"byteOffset":2764120},{"buffer":0,"byteLength":4,"byteOffset":2766408},{"buffer":0,"byteLength":12,"byteOffset":2766296},{"buffer":0,"byteLength":80,"byteOffset":2765812},{"buffer":0,"byteLength":320,"byteOffset":2763488},{"buffer":0,"byteLength":72,"byteOffset":2765968},{"buffer":0,"byteLength":216,"byteOffset":2764888},{"buffer":0,"byteLength":4,"byteOffset":2766412},{"buffer":0,"byteLength":12,"byteOffset":2766308},{"buffer":0,"byteLength":4,"byteOffset":2766416},{"buffer":0,"byteLength":16,"byteOffset":2766180},{"buffer":0,"byteLength":76,"byteOffset":2765892},{"buffer":0,"byteLength":228,"byteOffset":2764660},{"buffer":0,"byteLength":4,"byteOffset":2766420},{"buffer":0,"byteLength":12,"byteOffset":2766320},{"buffer":0,"byteLength":4,"byteOffset":2766424},{"buffer":0,"byteLength":16,"byteOffset":2766196},{"buffer":0,"byteLength":4,"byteOffset":2766428},{"buffer":0,"byteLength":12,"byteOffset":2766332},{"buffer":0,"byteLength":4,"byteOffset":2766432},{"buffer":0,"byteLength":12,"byteOffset":2766344},{"buffer":0,"byteLength":4,"byteOffset":2766436},{"buffer":0,"byteLength":16,"byteOffset":2766212},{"buffer":0,"byteLength":104,"byteOffset":2765528},{"buffer":0,"byteLength":312,"byteOffset":2763808},{"buffer":0,"byteLength":4,"byteOffset":2766440},{"buffer":0,"byteLength":12,"byteOffset":2766356},{"buffer":0,"byteLength":4,"byteOffset":2766444},{"buffer":0,"byteLength":16,"byteOffset":2766228},{"buffer":0,"byteLength":112,"byteOffset":2765416},{"buffer":0,"byteLength":336,"byteOffset":2762832},{"buffer":0,"byteLength":4,"byteOffset":2766448},{"buffer":0,"byteLength":12,"byteOffset":2766368},{"buffer":0,"byteLength":4,"byteOffset":2766452},{"buffer":0,"byteLength":16,"byteOffset":2766244},{"buffer":0,"byteLength":120,"byteOffset":2765296},{"buffer":0,"byteLength":360,"byteOffset":2762472},{"buffer":0,"byteLength":4,"byteOffset":2766456},{"buffer":0,"byteLength":12,"byteOffset":2766380},{"buffer":0,"byteLength":386688,"byteOffset":1031168,"target":34962},{"buffer":0,"byteLength":257792,"byteOffset":2125856,"target":34962},{"buffer":0,"byteLength":386688,"byteOffset":1417856,"target":34962},{"buffer":0,"byteLength":515584,"target":34962},{"buffer":0,"byteLength":257792,"byteOffset":2383648,"byteStride":8,"target":34962},{"buffer":0,"byteLength":515584,"byteOffset":515584,"target":34962},{"buffer":0,"byteLength":56616,"byteOffset":2704704,"target":34963},{"buffer":0,"byteLength":321312,"byteOffset":1804544,"target":34963},{"buffer":0,"byteLength":576,"byteOffset":2761320,"target":34963},{"buffer":0,"byteLength":63264,"byteOffset":2641440,"target":34963},{"buffer":0,"byteLength":576,"byteOffset":2761896}],"buffers":[{"byteLength":2766460,"uri":"drow_glacier_hilltop_model.bin"}],"images":[{"name":"drow_glacier_snow_color_psd_f9fa7666.vtex","uri":"drow_glacier_snow_color_psd_f9fa7666.png"},{"name":"drow_arcana_pedestal_snow_normal_psd_dc156402.vtex","uri":"drow_arcana_pedestal_snow_normal_psd_dc156402.png"},{"name":"temple_stairs001_color_psd_2cbf7888.vtex","uri":"temple_stairs001_color_psd_2cbf7888.png"},{"name":"temple_stairs001_normal_psd_10ed077b.vtex","uri":"temple_stairs001_normal_psd_10ed077b.png"},{"name":"campfire_rocks001_color_psd_ea153fc9.vtex","uri":"campfire_rocks001_color_psd_ea153fc9.png"},{"name":"campfire_rocks001_normal_psd_e3cf15c4.vtex","uri":"campfire_rocks001_normal_psd_e3cf15c4.png"},{"name":"crystal03_color_psd_b976dc93.vtex","uri":"crystal03_color_psd_b976dc93.png"},{"name":"crystal02_selfillum_psd_b0bdf695.vtex","uri":"crystal02_selfillum_psd_b0bdf695.png"},{"name":"drow_glacier_ice_vmat_g_tmasks2_69ed8b53.vtex","uri":"drow_glacier_ice_vmat_g_tmasks2_69ed8b53.png"},{"name":"crystal02_normal_psd_75200976.vtex","uri":"crystal02_normal_psd_75200976.png"},{"name":"crystal02_selfillum_psd_b0bdf695_orm_1727001752.png","uri":"crystal02_selfillum_psd_b0bdf695_orm_1727001752.png"}],"materials":[{"extras":{"vmat":{"Name":"materials/models/heroes/drow/drow_glacier_snow.vmat","ShaderName":"global_lit_simple.vfx","IntParams":{"F_ALPHA_TEST":1,"F_MODULATE_SPECULAR_BY_ALPHA":1,"F_NORMAL_MAP":1,"F_SPECULAR":1},"FloatParams":{"g_flAlphaTestReference":0.7,"g_flBumpStrength":1.25,"g_flSpecularBloom":1,"g_flSpecularIntensity":1},"VectorParams":{"g_vColorTint":[0.694118,0.733333,0.772549,0],"g_vTexCoordOffset":[0,0,0,0],"g_vTexCoordScale":[1,1,0,0],"TextureBloom":[1,1,1,0],"TextureSelfIllumMask":[0,0,0,0]},"TextureParams":{"g_tColor":"materials/models/heroes/drow/drow_glacier_snow_color_psd_f9fa7666.vtex","g_tNormal":"materials/models/items/drow/drow_arcana/drow_arcana_pedestal_snow_normal_psd_dc156402.vtex","g_tSpecular":"materials/models/items/drow/drow_arcana/drow_arcana_pedestal_snow_refl_psd_31596b7f.vtex"}}},"name":"drow_glacier_snow","alphaCutoff":0.699999988079071,"alphaMode":"MASK","normalTexture":{"index":1},"pbrMetallicRoughness":{"baseColorFactor":[0.43965763,0.49693254,0.55834025,1],"baseColorTexture":{"index":0},"metallicFactor":0}},{"extras":{"vmat":{"Name":"materials/models/heroes/drow/drow_glacier_stairs.vmat","ShaderName":"global_lit_simple.vfx","IntParams":{"F_MODULATE_SPECULAR_BY_ALPHA":1,"F_NORMAL_MAP":1,"F_SPECULAR":1},"FloatParams":{"g_flBumpStrength":1,"g_flSpecularBloom":0,"g_flSpecularIntensity":0.393},"VectorParams":{"g_vColorTint":[0.439216,0.423529,0.423529,0],"g_vTexCoordOffset":[0,0,0,0],"g_vTexCoordScale":[1,1,0,0]},"TextureParams":{"g_tColor":"materials/models/props_structures/temple_stairs001_color_psd_2cbf7888.vtex","g_tNormal":"materials/models/props_structures/temple_stairs001_normal_psd_10ed077b.vtex","g_tSpecular":"materials/models/props_structures/temple_stairs001_refl_psd_b618931b.vtex"}}},"name":"drow_glacier_stairs","normalTexture":{"index":3},"pbrMetallicRoughness":{"baseColorFactor":[0.16202955,0.14995937,0.14995937,1],"baseColorTexture":{"index":2},"metallicFactor":0}},{"extras":{"vmat":{"Name":"materials/models/items/drow/drow_arcana/drpw_arcana_pedestal_rocks.vmat","ShaderName":"global_lit_simple.vfx","IntParams":{"F_NORMAL_MAP":1},"FloatParams":{"g_flBumpStrength":1},"VectorParams":{"g_vColorTint":[0.219608,0.235294,0.270588,0],"g_vTexCoordOffset":[0,0,0,0],"g_vTexCoordScale":[1,1,0,0]},"TextureParams":{"g_tColor":"materials/models/props_nature/campfire_rocks001_color_psd_ea153fc9.vtex","g_tNormal":"materials/models/props_nature/campfire_rocks001_normal_psd_e3cf15c4.vtex"}}},"name":"drpw_arcana_pedestal_rocks","normalTexture":{"index":5},"pbrMetallicRoughness":{"baseColorFactor":[0.039546184,0.045186054,0.05951105,1],"baseColorTexture":{"index":4},"metallicFactor":0}},{"extensions":{"KHR_materials_specular":{"specularColorFactor":[0.203922,0.74902,1],"specularTexture":{"index":8}}},"extras":{"vmat":{"Name":"materials/models/heroes/drow/drow_glacier_ice.vmat","ShaderName":"hero.vfx","IntParams":{"F_MASK_CUBE_MAP_BY_METALNESS":1,"F_MASKS_1":1,"F_MASKS_2":1,"F_SPECULAR_CUBE_MAP":1},"FloatParams":{"g_flAmbientScale":1,"g_flBloomScale":1,"g_flBloomShift":0.407,"g_flCloakBlurAmount":0.005,"g_flCloakIntensity":0.85,"g_flCloakRefractAmount":0.1,"g_flCubeMapScalar":1.991,"g_flDiffuseModulationAmount":1,"g_flEnvMapBlendToFull":0,"g_flFresnelModulatesAlpha":0,"g_flMaterialCloakFactor":0,"g_flMetalnessBlendToFull":0,"g_flReflectionsTintByBaseBlendToNone":0,"g_flRimLightScale":1,"g_flSelfIllumBlendToFull":0,"g_flSpecularBlendToFull":0,"g_flSpecularExponent":32,"g_flSpecularExponentBlendToFull":0,"g_flSpecularScale":1,"g_flTexCoordRotation":0},"VectorParams":{"g_vBloomColor":[0.094118,0.505882,0.94902,0],"g_vCloakColorTint":[1,1,1,0],"g_vRimLightColor":[1,1,1,0],"g_vSpecularColor":[0.203922,0.74902,1,0],"g_vTexCoordOffset":[0,0,0,0],"g_vTexCoordScale":[1,1,0,0],"TextureDetailMask":[0,0,0,0],"TextureDiffuseWarpMask":[0,0,0,0],"TextureMetalnessMask":[0.78,0.78,0.78,0],"TextureRimMask":[0.498,0.498,0.498,0],"TextureSpecularExponent":[0.887,0.887,0.887,0],"TextureSpecularMask":[1,1,1,0],"TextureTintByBaseMask":[0.03,0.03,0.03,0]},"TextureParams":{"g_tColor":"materials/models/heroes/lich/crystal03_color_psd_b976dc93.vtex","g_tCubeMap":"materials/cubemaps/blue_day_cube_psd_3e67c8f2.vtex","g_tFresnelWarp":"materials/default/default_fresnelwarprim_tga_d9279d65.vtex","g_tMasks1":"maps/cavern_assets/models/crystals/crystal02_selfillum_psd_b0bdf695.vtex","g_tMasks2":"materials/models/heroes/drow/drow_glacier_ice_vmat_g_tmasks2_69ed8b53.vtex","g_tNormal":"materials/models/heroes/lich/crystal02_normal_psd_75200976.vtex"}}},"name":"drow_glacier_ice","emissiveTexture":{"index":7},"normalTexture":{"index":9},"occlusionTexture":{"index":10},"pbrMetallicRoughness":{"baseColorTexture":{"index":6},"metallicRoughnessTexture":{"index":10}}}],"meshes":[{"extras":{},"name":"models/heroes/drow/drow_glacier_hilltop_model.vmdl_c.unnamed_1","primitives":[{"attributes":{"POSITION":54,"TEXCOORD_0":55,"NORMAL":56,"TANGENT":57,"JOINTS_0":58,"WEIGHTS_0":59},"indices":60,"material":0},{"attributes":{"POSITION":54,"TEXCOORD_0":55,"NORMAL":56,"TANGENT":57,"JOINTS_0":58,"WEIGHTS_0":59},"indices":61,"material":1},{"attributes":{"POSITION":54,"TEXCOORD_0":55,"NORMAL":56,"TANGENT":57,"JOINTS_0":58,"WEIGHTS_0":59},"indices":62,"material":2},{"attributes":{"POSITION":54,"TEXCOORD_0":55,"NORMAL":56,"TANGENT":57,"JOINTS_0":58,"WEIGHTS_0":59},"indices":63,"material":3}]}],"nodes":[{"name":"models/heroes/drow/drow_glacier_hilltop_model.vmdl_c","children":[1,2,3,4,5,7],"matrix":[3.027916E-09,0,0.025399996,0,0.025399996,3.027916E-09,0,0,0,0.025399996,3.027916E-09,0,0,0,0,1]},{"name":"drow_glacier_model","rotation":[0.5,0.5,0.5,0.5]},{"name":"crystal_0","rotation":[0.6505701,0.27705345,0.6505701,0.27705345],"translation":[-0,6.933255,-27.935074]},{"name":"crystal_0_L","rotation":[0.6840538,0.18643066,0.5809982,0.3996939],"translation":[7.027593,-3.8146973E-06,-28.427929]},{"name":"crystal_0_R","rotation":[-0.37853605,0.65358853,-0.18617429,0.62838805],"translation":[-11.768618,2.4207757,-28.427938]},{"name":"snow_0","children":[6],"rotation":[0.70710677,0,0.70710677,0],"translation":[-0,-0,-19.657516]},{"name":"snow_1","rotation":[0,0,-3.0794407E-08,1],"translation":[17.06905,-2.543486E-06,0]},{"name":"stairs_0","children":[8],"rotation":[0.70710677,0,0.70710677,0],"translation":[-0,-0,-23.465588]},{"name":"stairs_1","children":[9],"rotation":[0,0,-3.0794407E-08,1],"translation":[5.6711426,-8.450641E-07,0]},{"name":"stairs_2","rotation":[0,0,-3.552715E-15,1],"translation":[10.649759,-9.310306E-07,0]},{"name":"models/heroes/drow/drow_glacier_hilltop_model.vmdl_c.unnamed_1","mesh":0,"skin":0}],"samplers":[{"magFilter":9729,"minFilter":9987}],"scenes":[{"name":"drow_glacier_hilltop_model.vmdl_c","nodes":[0,10]}],"skins":[{"inverseBindMatrices":64,"joints":[1,2,3,4,5,6,7,8,9]}],"textures":[{"name":"drow_glacier_snow_color_psd_f9fa7666.vtex","sampler":0,"source":0},{"name":"drow_arcana_pedestal_snow_normal_psd_dc156402.vtex","sampler":0,"source":1},{"name":"temple_stairs001_color_psd_2cbf7888.vtex","sampler":0,"source":2},{"name":"temple_stairs001_normal_psd_10ed077b.vtex","sampler":0,"source":3},{"name":"campfire_rocks001_color_psd_ea153fc9.vtex","sampler":0,"source":4},{"name":"campfire_rocks001_normal_psd_e3cf15c4.vtex","sampler":0,"source":5},{"name":"crystal03_color_psd_b976dc93.vtex","sampler":0,"source":6},{"name":"crystal02_selfillum_psd_b0bdf695.vtex","sampler":0,"source":7},{"name":"drow_glacier_ice_vmat_g_tmasks2_69ed8b53.vtex","sampler":0,"source":8},{"name":"crystal02_normal_psd_75200976.vtex","sampler":0,"source":9},{"name":"crystal02_selfillum_psd_b0bdf695_orm_1727001752.png","sampler":0,"source":10}]}