{"asset":{"copyright":"","generator":"Source 2 Viewer 17.0.0.0 - https://valveresourceformat.github.io","version":"2.0"},"extensionsUsed":["KHR_materials_specular"],"accessors":[{"bufferView":0,"componentType":5126,"count":1284,"max":[8.05556869506836,33.3117561340332,102.01325988769531],"min":[-9.212051391601562,-33.311771392822266,72.92863464355469],"type":"VEC3"},{"bufferView":1,"componentType":5126,"count":1284,"max":[0.9915158748626709,0.9938963055610657],"min":[0.00674459058791399,0.005920590832829475],"type":"VEC2"},{"bufferView":2,"componentType":5126,"count":1284,"max":[0.9863938689231873,0.9993062615394592,0.993043065071106],"min":[-0.9890375733375549,-0.9997313618659973,-0.9969363212585449],"type":"VEC3"},{"bufferView":3,"componentType":5126,"count":1284,"type":"VEC4"},{"bufferView":4,"componentType":5123,"count":1284,"type":"VEC4"},{"bufferView":5,"componentType":5126,"count":1284,"type":"VEC4"},{"bufferView":6,"componentType":5125,"count":5172,"type":"SCALAR"},{"name":"Bind Matrices","bufferView":7,"componentType":5126,"count":15,"type":"MAT4"}],"bufferViews":[{"buffer":0,"byteLength":15408,"byteOffset":61776,"target":34962},{"buffer":0,"byteLength":10272,"byteOffset":92592,"target":34962},{"buffer":0,"byteLength":15408,"byteOffset":77184,"target":34962},{"buffer":0,"byteLength":20544,"byteOffset":20688,"target":34962},{"buffer":0,"byteLength":10272,"byteOffset":102864,"byteStride":8,"target":34962},{"buffer":0,"byteLength":20544,"byteOffset":41232,"target":34962},{"buffer":0,"byteLength":20688,"target":34963},{"buffer":0,"byteLength":960,"byteOffset":113136}],"buffers":[{"byteLength":114096,"uri":"drow_bracer.bin"}],"images":[{"name":"drow_bracer_color_psd_4329901e.vtex","uri":"drow_bracer_color_psd_4329901e.png"},{"name":"drow_bracer_metalnessmask_psd_467170a4.vtex","uri":"drow_bracer_metalnessmask_psd_467170a4.png"},{"name":"drow_bracer_specmask_psd_7ecd2d9c.vtex","uri":"drow_bracer_specmask_psd_7ecd2d9c.png"},{"name":"drow_bracer_normal_psd_e984fb2e.vtex","uri":"drow_bracer_normal_psd_e984fb2e.png"},{"name":"drow_bracer_metalnessmask_psd_467170a4_orm_1886344496.png","uri":"drow_bracer_metalnessmask_psd_467170a4_orm_1886344496.png"}],"materials":[{"extensions":{"KHR_materials_specular":{"specularColorFactor":[0.741176,0.909804,1],"specularTexture":{"index":2}}},"extras":{"vmat":{"Name":"materials/models/heroes/drow/drow_bracer.vmat","ShaderName":"hero.vfx","IntParams":{"F_ALPHA_TEST":1,"F_DIFFUSE_WARP":1,"F_MASKS_1":1,"F_MASKS_2":1,"F_MORPH_SUPPORTED":1,"F_SPECULAR_CUBE_MAP":1,"F_USE_STATUS_EFFECTS_PROXY":1},"FloatParams":{"g_flAlphaTestReference":0.5,"g_flAmbientScale":1,"g_flBloomScale":0.089,"g_flBloomShift":0,"g_flCloakBlurAmount":0.005,"g_flCloakIntensity":0.85,"g_flCloakRefractAmount":0.1,"g_flCubeMapScalar":3,"g_flDetail2BlendFactor":0,"g_flDiffuseModulationAmount":1,"g_flDiffuseWarpBlendToFull":0,"g_flEnvMapBlendToFull":0,"g_flFresnelModulatesAlpha":0,"g_flMaterialCloakFactor":0,"g_flMetalnessBlendToFull":0,"g_flReflectionsTintByBaseBlendToNone":0,"g_flRimLightScale":2,"g_flSelfIllumBlendToFull":0,"g_flSpecularBlendToFull":0,"g_flSpecularExponent":40,"g_flSpecularExponentBlendToFull":0,"g_flSpecularScale":10,"g_flTexCoordRotation":0},"VectorParams":{"g_vBloomColor":[1,1,1,0],"g_vCloakColorTint":[1,1,1,0],"g_vDetail2ColorTint":[1,1,1,0],"g_vDetailTexCoordScale":[1,1,0,0],"g_vRimLightColor":[0.627451,0.886275,0.984314,1],"g_vSpecularColor":[0.741176,0.909804,1,0],"g_vTexCoordOffset":[0,0,0,0],"g_vTexCoordScale":[1,1,0,0],"TextureDetailMask":[0,0,0,0],"TextureDiffuseWarpMask":[0,0,0,0],"TextureSelfIllumMask":[0,0,0,0],"TextureTranslucency":[1,1,1,0]},"TextureParams":{"g_tColor":"materials/models/heroes/drow/drow_bracer_color_psd_4329901e.vtex","g_tCubeMap":"materials/models/cubemaps/cube_metal_grey_cube_tga_3e998d35.vtex","g_tDetail2":"materials/default/default_detail2_tga_70788555.vtex","g_tDiffuseWarp":"materials/models/heroes/drow/diffusewarp_diffusewarp_psd_b1607356.vtex","g_tFresnelWarp":"materials/default/default_fresnelwarprim_tga_d9279d65.vtex","g_tMasks1":"materials/models/heroes/drow/drow_bracer_metalnessmask_psd_467170a4.vtex","g_tMasks2":"materials/models/heroes/drow/drow_bracer_specmask_psd_7ecd2d9c.vtex","g_tNormal":"materials/models/heroes/drow/drow_bracer_normal_psd_e984fb2e.vtex"}}},"name":"drow_bracer","alphaMode":"MASK","emissiveTexture":{"index":1},"normalTexture":{"index":3},"occlusionTexture":{"index":4},"pbrMetallicRoughness":{"baseColorTexture":{"index":0},"metallicRoughnessTexture":{"index":4}}}],"meshes":[{"extras":{},"name":"models/heroes/drow/drow_bracer.vmdl_c.drow_bracer","primitives":[{"attributes":{"POSITION":0,"TEXCOORD_0":1,"NORMAL":2,"TANGENT":3,"JOINTS_0":4,"WEIGHTS_0":5},"indices":6,"material":0}]}],"nodes":[{"name":"models/heroes/drow/drow_bracer.vmdl_c","children":[1,8],"matrix":[3.027916E-09,0,0.025399996,0,0.025399996,3.027916E-09,0,0,0,0.025399996,3.027916E-09,0,0,0,0,1]},{"name":"bicep_L","children":[2],"rotation":[-0.6808545,-0.19392624,0.7060013,0.019799063],"translation":[-3.6304138,11.890457,121.831375]},{"name":"elbow_L","children":[3],"rotation":[-3.81135E-08,0.21132194,-9.528519E-10,0.9774166],"translation":[24.803024,-0.00020980835,1.4901161E-06]},{"name":"wrist_L","children":[4,6,7],"rotation":[0.08031517,-0.013713438,-0.041869696,0.99579537],"translation":[21.789875,-0.00032806396,-0.0002670288]},{"name":"thumb_0_L","children":[5],"rotation":[0.9469285,0.14875823,-0.24196263,0.15050407],"translation":[4.186001,1.7761002,-2.775528]},{"name":"thumb_1_L","rotation":[-1.542152E-08,0.2576186,5.5903055E-08,0.96624666],"translation":[3.3138885,0.0003299713,0.0008087158]},{"name":"index_0_L","rotation":[0.6385396,0.12744749,0.13602275,0.74667406],"translation":[8.290722,-1.36343,-1.423109]},{"name":"mid_0_L","rotation":[0.5579724,0.087814674,0.20488772,0.79936004],"translation":[8.117615,-0.33006668,1.6754665]},{"name":"bicep_R","children":[9],"rotation":[0.70600146,0.019798921,0.68085426,0.19392626],"translation":[-3.6304219,-11.890452,121.83124]},{"name":"elbow_R","children":[10],"rotation":[-4.954761E-08,0.211322,1.1910483E-08,0.9774165],"translation":[-24.803108,0.00015640259,-2.0861626E-06]},{"name":"wrist_R","children":[11,13,14,15],"rotation":[0.080315195,-0.013713406,-0.041869704,0.99579537],"translation":[-21.789951,0.00025177002,0.00019836426]},{"name":"thumb_0_R","children":[12],"rotation":[0.9469285,0.14875826,-0.24196264,0.15050407],"translation":[-4.186081,-1.7761803,2.7754688]},{"name":"thumb_1_R","rotation":[-7.71078E-09,0.25761855,-7.710777E-09,0.9662467],"translation":[-3.3139687,-0.0002708435,-0.0006637573]},{"name":"mid_0_R","rotation":[0.5579723,0.08781475,0.20488779,0.79936004],"translation":[-8.117691,0.32998276,-1.6755142]},{"name":"attach_attack2","rotation":[0.075216,-0.085215464,-0.6798625,0.72447765],"translation":[-11.756672,-2.5561905,1.9792404]},{"name":"index_0_R","rotation":[0.6385396,0.12744753,0.13602279,0.74667406],"translation":[-8.290802,1.363327,1.423048]},{"name":"models/heroes/drow/drow_bracer.vmdl_c.drow_bracer","mesh":0,"skin":0}],"samplers":[{"magFilter":9729,"minFilter":9987}],"scenes":[{"name":"drow_bracer.vmdl_c","nodes":[0,16]}],"skins":[{"inverseBindMatrices":7,"joints":[1,8,2,9,3,10,4,11,6,5,7,13,12,14,15]}],"textures":[{"name":"drow_bracer_color_psd_4329901e.vtex","sampler":0,"source":0},{"name":"drow_bracer_metalnessmask_psd_467170a4.vtex","sampler":0,"source":1},{"name":"drow_bracer_specmask_psd_7ecd2d9c.vtex","sampler":0,"source":2},{"name":"drow_bracer_normal_psd_e984fb2e.vtex","sampler":0,"source":3},{"name":"drow_bracer_metalnessmask_psd_467170a4_orm_1886344496.png","sampler":0,"source":4}]}