{"asset":{"copyright":"","generator":"Source 2 Viewer 17.0.0.0 - https://valveresourceformat.github.io","version":"2.0"},"extensionsUsed":["KHR_materials_specular"],"accessors":[{"bufferView":0,"componentType":5126,"count":1549,"max":[67.10694122314453,4.088407039642334,29.535762786865234],"min":[-67.1069107055664,-3.5374388694763184,-8.722197532653809],"type":"VEC3"},{"bufferView":1,"componentType":5126,"count":1549,"max":[0.9951475858688354,0.9943235516548157],"min":[0.00833155307918787,0.01065095979720354],"type":"VEC2"},{"bufferView":2,"componentType":5126,"count":1549,"max":[0.9972413182258606,1,0.9934532642364502],"min":[-0.9826616644859314,-1,-0.9974828362464905],"type":"VEC3"},{"bufferView":3,"componentType":5126,"count":1549,"type":"VEC4"},{"bufferView":4,"componentType":5123,"count":1549,"type":"VEC4"},{"bufferView":5,"componentType":5126,"count":1549,"type":"VEC4"},{"bufferView":6,"componentType":5125,"count":5136,"type":"SCALAR"},{"name":"Bind Matrices","bufferView":7,"componentType":5126,"count":9,"type":"MAT4"}],"bufferViews":[{"buffer":0,"byteLength":18588,"byteOffset":70112,"target":34962},{"buffer":0,"byteLength":12392,"byteOffset":107288,"target":34962},{"buffer":0,"byteLength":18588,"byteOffset":88700,"target":34962},{"buffer":0,"byteLength":24784,"target":34962},{"buffer":0,"byteLength":12392,"byteOffset":119680,"byteStride":8,"target":34962},{"buffer":0,"byteLength":24784,"byteOffset":24784,"target":34962},{"buffer":0,"byteLength":20544,"byteOffset":49568,"target":34963},{"buffer":0,"byteLength":576,"byteOffset":132072}],"buffers":[{"byteLength":132648,"uri":"drow_weapon.bin"}],"images":[{"name":"drow_weapon_color_psd_ee88799b.vtex","uri":"drow_weapon_color_psd_ee88799b.png"},{"name":"drow_base_detailmask_png_3cbfc6ff.vtex","uri":"drow_base_detailmask_png_3cbfc6ff.png"},{"name":"drow_weapon_specmask_psd_5669d427.vtex","uri":"drow_weapon_specmask_psd_5669d427.png"},{"name":"drow_weapon_normal_psd_b309bdef.vtex","uri":"drow_weapon_normal_psd_b309bdef.png"},{"name":"drow_base_detailmask_png_3cbfc6ff_orm_2789159776.png","uri":"drow_base_detailmask_png_3cbfc6ff_orm_2789159776.png"}],"materials":[{"extensions":{"KHR_materials_specular":{"specularColorFactor":[0.694118,0.917647,1],"specularTexture":{"index":2}}},"extras":{"vmat":{"Name":"materials/models/heroes/drow/drow_weapon.vmat","ShaderName":"hero.vfx","IntParams":{"F_ALPHA_TEST":1,"F_MASKS_1":1,"F_MASKS_2":1,"F_MORPH_SUPPORTED":1,"F_SPECULAR_CUBE_MAP":1,"F_USE_STATUS_EFFECTS_PROXY":1},"FloatParams":{"g_flAlphaTestReference":0.5,"g_flAmbientScale":1,"g_flBloomScale":0.089,"g_flBloomShift":0,"g_flCloakBlurAmount":0.005,"g_flCloakIntensity":0.85,"g_flCloakRefractAmount":0.1,"g_flCubeMapScalar":3,"g_flDetail2BlendFactor":0,"g_flDiffuseModulationAmount":1,"g_flEnvMapBlendToFull":0,"g_flFresnelModulatesAlpha":0,"g_flMaterialCloakFactor":0,"g_flMetalnessBlendToFull":0,"g_flReflectionsTintByBaseBlendToNone":0,"g_flRimLightScale":5,"g_flSelfIllumBlendToFull":0,"g_flSpecularBlendToFull":0,"g_flSpecularExponent":40,"g_flSpecularExponentBlendToFull":0,"g_flSpecularScale":10,"g_flTexCoordRotation":0},"VectorParams":{"g_vBloomColor":[1,1,1,0],"g_vCloakColorTint":[1,1,1,0],"g_vDetail2ColorTint":[1,1,1,0],"g_vDetailTexCoordScale":[1,1,0,0],"g_vRimLightColor":[1,1,1,1],"g_vSpecularColor":[0.694118,0.917647,1,0],"g_vTexCoordOffset":[0,0,0,0],"g_vTexCoordScale":[1,1,0,0],"TextureDiffuseWarpMask":[0,0,0,0],"TextureTranslucency":[1,1,1,0]},"TextureParams":{"g_tColor":"materials/models/heroes/drow/drow_weapon_color_psd_ee88799b.vtex","g_tCubeMap":"materials/models/cubemaps/cube_metal_grey_cube_tga_3e998d35.vtex","g_tDetail2":"materials/default/default_detail2_tga_70788555.vtex","g_tFresnelWarp":"materials/default/default_fresnelwarprim_tga_d9279d65.vtex","g_tMasks1":"materials/models/heroes/drow/drow_base_detailmask_png_3cbfc6ff.vtex","g_tMasks2":"materials/models/heroes/drow/drow_weapon_specmask_psd_5669d427.vtex","g_tNormal":"materials/models/heroes/drow/drow_weapon_normal_psd_b309bdef.vtex"}}},"name":"drow_weapon","alphaMode":"MASK","emissiveTexture":{"index":1},"normalTexture":{"index":3},"occlusionTexture":{"index":4},"pbrMetallicRoughness":{"baseColorTexture":{"index":0},"metallicRoughnessTexture":{"index":4}}}],"meshes":[{"extras":{},"name":"models/heroes/drow/drow_weapon.vmdl_c.drow_weapon","primitives":[{"attributes":{"POSITION":0,"TEXCOORD_0":1,"NORMAL":2,"TANGENT":3,"JOINTS_0":4,"WEIGHTS_0":5},"indices":6,"material":0}]}],"nodes":[{"name":"models/heroes/drow/drow_weapon.vmdl_c","children":[1,9],"matrix":[3.027916E-09,0,0.025399996,0,0.025399996,3.027916E-09,0,0,0,0.025399996,3.027916E-09,0,0,0,0,1]},{"name":"Bow1_0","children":[2,5,8],"rotation":[0.7911498,0.17565437,-0.5674147,-0.14583597],"translation":[1.2397839E-05,-7.438728E-05,-0.00047302712]},{"name":"bow8_0_D_L","children":[3],"rotation":[0.48260942,0.12690109,0.84555626,-0.18978636],"translation":[-12.055457,-5.49717,13.422645]},{"name":"bow8_1_D_L","children":[4],"rotation":[0.00197414,0.22255616,0.008647657,0.9748795],"translation":[20.372562,-1.0141273E-05,-6.6280365E-05]},{"name":"Bow2_0_A_L","rotation":[0.7209696,0.6811058,0.09123008,0.0893012],"translation":[15.0167465,-2.2530556E-05,0.00018882751]},{"name":"bow9_0_D_R","children":[6],"rotation":[0.15815867,-0.7223931,0.16464786,0.652706],"translation":[-2.0417812,-1.6723366,-18.861359]},{"name":"bow9_1_D_R","children":[7],"rotation":[-0.00095189334,0.26027912,-0.0035315685,0.9655265],"translation":[-18.75966,-5.5288183E-06,7.1525574E-05]},{"name":"Bow3_0_A_R","rotation":[-3.6088021E-09,-2.23514E-08,-5.040708E-08,1],"translation":[-17.139679,-8.672476E-06,-0.00024604797]},{"name":"attach_bone","rotation":[0.8400274,-0.518537,0.09695844,-0.12677684],"translation":[-19.545584,-9.993551,-6.8122253]},{"name":"index_2_L","rotation":[0.7136738,-0.5272776,-0.22398937,-0.40308407],"translation":[7.968791,31.04055,66.86368]},{"name":"models/heroes/drow/drow_weapon.vmdl_c.drow_weapon","mesh":0,"skin":0}],"samplers":[{"magFilter":9729,"minFilter":9987}],"scenes":[{"name":"drow_weapon.vmdl_c","nodes":[0,10]}],"skins":[{"inverseBindMatrices":7,"joints":[1,2,5,3,6,4,7,8,9]}],"textures":[{"name":"drow_weapon_color_psd_ee88799b.vtex","sampler":0,"source":0},{"name":"drow_base_detailmask_png_3cbfc6ff.vtex","sampler":0,"source":1},{"name":"drow_weapon_specmask_psd_5669d427.vtex","sampler":0,"source":2},{"name":"drow_weapon_normal_psd_b309bdef.vtex","sampler":0,"source":3},{"name":"drow_base_detailmask_png_3cbfc6ff_orm_2789159776.png","sampler":0,"source":4}]}