{"asset":{"copyright":"","generator":"Source 2 Viewer 17.0.0.0 - https://valveresourceformat.github.io","version":"2.0"},"extensionsUsed":["KHR_materials_specular"],"accessors":[{"bufferView":0,"componentType":5126,"count":2116,"max":[14.020136833190918,24.152402877807617,156.5543975830078],"min":[-21.543283462524414,-19.571075439453125,80.51004028320312],"type":"VEC3"},{"bufferView":1,"componentType":5126,"count":2116,"max":[0.9938657879829407,0.9963072538375854],"min":[0.0042420728132128716,0.008301034569740295],"type":"VEC2"},{"bufferView":2,"componentType":5126,"count":2116,"max":[0.9998700022697449,0.9860711693763733,0.9834215641021729],"min":[-0.9998700022697449,-0.9960377216339111,-0.9867688417434692],"type":"VEC3"},{"bufferView":3,"componentType":5126,"count":2116,"type":"VEC4"},{"bufferView":4,"componentType":5123,"count":2116,"type":"VEC4"},{"bufferView":5,"componentType":5126,"count":2116,"type":"VEC4"},{"bufferView":6,"componentType":5125,"count":8034,"type":"SCALAR"},{"name":"Bind Matrices","bufferView":7,"componentType":5126,"count":13,"type":"MAT4"}],"bufferViews":[{"buffer":0,"byteLength":25392,"byteOffset":99848,"target":34962},{"buffer":0,"byteLength":16928,"byteOffset":150632,"target":34962},{"buffer":0,"byteLength":25392,"byteOffset":125240,"target":34962},{"buffer":0,"byteLength":33856,"target":34962},{"buffer":0,"byteLength":16928,"byteOffset":167560,"byteStride":8,"target":34962},{"buffer":0,"byteLength":33856,"byteOffset":33856,"target":34962},{"buffer":0,"byteLength":32136,"byteOffset":67712,"target":34963},{"buffer":0,"byteLength":832,"byteOffset":184488}],"buffers":[{"byteLength":185320,"uri":"drow_quiver.bin"}],"images":[{"name":"drow_quiver_color_psd_5345a6f5.vtex","uri":"drow_quiver_color_psd_5345a6f5.png"},{"name":"drow_quiver_metalnessmask_psd_78bbde93.vtex","uri":"drow_quiver_metalnessmask_psd_78bbde93.png"},{"name":"drow_quiver_specmask_psd_c33e4529.vtex","uri":"drow_quiver_specmask_psd_c33e4529.png"},{"name":"drow_quiver_normal_psd_fbaf48a4.vtex","uri":"drow_quiver_normal_psd_fbaf48a4.png"},{"name":"drow_quiver_metalnessmask_psd_78bbde93_orm_2091704440.png","uri":"drow_quiver_metalnessmask_psd_78bbde93_orm_2091704440.png"}],"materials":[{"extensions":{"KHR_materials_specular":{"specularColorFactor":[0.764706,0.92549,1],"specularTexture":{"index":2}}},"extras":{"vmat":{"Name":"materials/models/heroes/drow/drow_quiver.vmat","ShaderName":"hero.vfx","IntParams":{"F_ALPHA_TEST":1,"F_DIFFUSE_WARP":1,"F_MASKS_1":1,"F_MASKS_2":1,"F_MORPH_SUPPORTED":1,"F_SPECULAR_CUBE_MAP":1,"F_USE_STATUS_EFFECTS_PROXY":1},"FloatParams":{"g_flAlphaTestReference":0.5,"g_flAmbientScale":1,"g_flBloomScale":0.089,"g_flBloomShift":0,"g_flCloakBlurAmount":0.005,"g_flCloakIntensity":0.85,"g_flCloakRefractAmount":0.1,"g_flCubeMapScalar":3,"g_flDetail2BlendFactor":0,"g_flDiffuseModulationAmount":1,"g_flDiffuseWarpBlendToFull":0,"g_flEnvMapBlendToFull":0,"g_flFresnelModulatesAlpha":0,"g_flMaterialCloakFactor":0,"g_flMetalnessBlendToFull":0,"g_flReflectionsTintByBaseBlendToNone":0,"g_flRimLightScale":5,"g_flSelfIllumBlendToFull":0,"g_flSpecularBlendToFull":0,"g_flSpecularExponent":40,"g_flSpecularExponentBlendToFull":0,"g_flSpecularScale":10,"g_flTexCoordRotation":0},"VectorParams":{"g_vBloomColor":[1,1,1,0],"g_vCloakColorTint":[1,1,1,0],"g_vDetail2ColorTint":[1,1,1,0],"g_vDetailTexCoordScale":[1,1,0,0],"g_vRimLightColor":[1,1,1,1],"g_vSpecularColor":[0.764706,0.92549,1,0],"g_vTexCoordOffset":[0,0,0,0],"g_vTexCoordScale":[1,1,0,0],"TextureDetailMask":[0,0,0,0],"TextureDiffuseWarpMask":[0,0,0,0],"TextureSelfIllumMask":[0,0,0,0]},"TextureParams":{"g_tColor":"materials/models/heroes/drow/drow_quiver_color_psd_5345a6f5.vtex","g_tCubeMap":"materials/models/cubemaps/cube_metal_grey_cube_tga_3e998d35.vtex","g_tDetail2":"materials/default/default_detail2_tga_70788555.vtex","g_tDiffuseWarp":"materials/models/heroes/drow/diffusewarp_diffusewarp_psd_b1607356.vtex","g_tFresnelWarp":"materials/default/default_fresnelwarprim_tga_d9279d65.vtex","g_tMasks1":"materials/models/heroes/drow/drow_quiver_metalnessmask_psd_78bbde93.vtex","g_tMasks2":"materials/models/heroes/drow/drow_quiver_specmask_psd_c33e4529.vtex","g_tNormal":"materials/models/heroes/drow/drow_quiver_normal_psd_fbaf48a4.vtex"}}},"name":"drow_quiver","alphaMode":"MASK","emissiveTexture":{"index":1},"normalTexture":{"index":3},"occlusionTexture":{"index":4},"pbrMetallicRoughness":{"baseColorTexture":{"index":0},"metallicRoughnessTexture":{"index":4}}}],"meshes":[{"extras":{},"name":"models/heroes/drow/drow_quiver.vmdl_c.drow_quiver","primitives":[{"attributes":{"POSITION":0,"TEXCOORD_0":1,"NORMAL":2,"TANGENT":3,"JOINTS_0":4,"WEIGHTS_0":5},"indices":6,"material":0}]}],"nodes":[{"name":"models/heroes/drow/drow_quiver.vmdl_c","children":[1],"matrix":[3.027916E-09,0,0.025399996,0,0.025399996,3.027916E-09,0,0,0,0.025399996,3.027916E-09,0,0,0,0,1]},{"name":"root","children":[2,13],"translation":[1.234973,0,88.21597]},{"name":"spine1","children":[3],"rotation":[1.5271326E-08,-0.7080875,-1.5271327E-08,0.7061247],"translation":[1.326796,-1.082745E-13,6.136612]},{"name":"spine2","children":[4],"rotation":[-3.9764216E-15,-0.06087426,5.3218034E-09,0.99814546],"translation":[13.575127,5.933848E-07,-1.9073486E-06]},{"name":"spine3","children":[5,8,11],"rotation":[-9.724382E-16,-0.045179322,3.9496992E-09,0.99897885],"translation":[8.001579,3.4704613E-07,-7.6293945E-06]},{"name":"clavicle_L","children":[6],"rotation":[0.5546443,0.43859977,0.5695968,0.4189982],"translation":[7.2428513,2.8498235,1.2899055]},{"name":"bicep_L","children":[7],"rotation":[-0.52646136,0.3535251,0.42741713,0.64433926],"translation":[9.37965,-7.6293945E-05,0.00035858154]},{"name":"elbow_L","rotation":[-3.81135E-08,0.21132194,-9.528519E-10,0.9774166],"translation":[24.803024,-0.00020980835,1.4901161E-06]},{"name":"clavicle_R","children":[9],"rotation":[0.56959677,0.41899794,-0.55464435,-0.43859994],"translation":[7.2428284,-2.8498216,1.2899208]},{"name":"bicep_R","children":[10],"rotation":[-0.5264615,0.35352504,0.42741725,0.64433914],"translation":[-9.37966,4.196167E-05,-0.00022888184]},{"name":"deltoid_0_r","rotation":[-4.097809E-08,0,4.004677E-08,1],"translation":[0.00036621094,0.00016784668,-6.1392784E-06]},{"name":"neck1","children":[12],"rotation":[-9.410056E-15,0.13346164,-1.1667589E-08,0.991054],"translation":[8.186356,3.495918E-07,-4.9591064E-05]},{"name":"head","rotation":[-6.342583E-08,0.6882191,1.90979E-13,0.72550297],"translation":[12.210152,5.329821E-07,2.527237E-05]},{"name":"thigh_L","rotation":[0.035505507,0.7105719,0.080779284,0.69807],"translation":[0.19442308,8.31019,0.07203674]},{"name":"models/heroes/drow/drow_quiver.vmdl_c.drow_quiver","mesh":0,"skin":0}],"samplers":[{"magFilter":9729,"minFilter":9987}],"scenes":[{"name":"drow_quiver.vmdl_c","nodes":[0,14]}],"skins":[{"inverseBindMatrices":7,"joints":[1,2,3,4,5,8,6,11,9,13,7,12,10]}],"textures":[{"name":"drow_quiver_color_psd_5345a6f5.vtex","sampler":0,"source":0},{"name":"drow_quiver_metalnessmask_psd_78bbde93.vtex","sampler":0,"source":1},{"name":"drow_quiver_specmask_psd_c33e4529.vtex","sampler":0,"source":2},{"name":"drow_quiver_normal_psd_fbaf48a4.vtex","sampler":0,"source":3},{"name":"drow_quiver_metalnessmask_psd_78bbde93_orm_2091704440.png","sampler":0,"source":4}]}