{"asset":{"copyright":"","generator":"Source 2 Viewer 17.0.0.0 - https://valveresourceformat.github.io","version":"2.0"},"extensionsUsed":["KHR_materials_specular"],"accessors":[{"bufferView":0,"componentType":5126,"count":195,"max":[58.00000762939453,11.053071975708008,12.5],"min":[-61.41900634765625,-11.053071975708008,-6.644477367401123],"type":"VEC3"},{"bufferView":1,"componentType":5126,"count":195,"max":[0.9871211647987366,0.9867549538612366],"min":[0.016388440504670143,0.013397625647485256],"type":"VEC2"},{"bufferView":2,"componentType":5126,"count":195,"max":[0.8770060539245605,1,1],"min":[-1,-1,-1],"type":"VEC3"},{"bufferView":3,"componentType":5126,"count":195,"type":"VEC4"},{"bufferView":4,"componentType":5123,"count":195,"type":"VEC4"},{"bufferView":5,"componentType":5126,"count":195,"type":"VEC4"},{"bufferView":6,"componentType":5125,"count":396,"type":"SCALAR"},{"name":"Bind Matrices","bufferView":7,"componentType":5126,"count":1,"type":"MAT4"}],"bufferViews":[{"buffer":0,"byteLength":2340,"byteOffset":6240,"target":34962},{"buffer":0,"byteLength":1560,"byteOffset":12504,"target":34962},{"buffer":0,"byteLength":2340,"byteOffset":8580,"target":34962},{"buffer":0,"byteLength":3120,"target":34962},{"buffer":0,"byteLength":1560,"byteOffset":14064,"byteStride":8,"target":34962},{"buffer":0,"byteLength":3120,"byteOffset":3120,"target":34962},{"buffer":0,"byteLength":1584,"byteOffset":10920,"target":34963},{"buffer":0,"byteLength":64,"byteOffset":15624}],"buffers":[{"byteLength":15688,"uri":"drow_marksmanship_arrow.bin"}],"images":[{"name":"drow_marksmanship_arrow_metalnessmask_psd_d00e901e.vtex","uri":"drow_marksmanship_arrow_metalnessmask_psd_d00e901e.png"},{"name":"drow_marksmanship_arrow_color_psd_7886da.vtex","uri":"drow_marksmanship_arrow_color_psd_7886da.png"},{"name":"drow_marksmanship_arrow_vmat_g_tmasks2_16c18594.vtex","uri":"drow_marksmanship_arrow_vmat_g_tmasks2_16c18594.png"},{"name":"drow_marksmanship_arrow_vmat_g_tnormal_5a28bd86.vtex","uri":"drow_marksmanship_arrow_vmat_g_tnormal_5a28bd86.png"},{"name":"drow_marksmanship_arrow_metalnessmask_psd_d00e901e_orm_1864826377.png","uri":"drow_marksmanship_arrow_metalnessmask_psd_d00e901e_orm_1864826377.png"}],"materials":[{"extensions":{"KHR_materials_specular":{"specularColorFactor":[0.317647,0.352941,0.752941],"specularTexture":{"index":2}}},"extras":{"vmat":{"Name":"materials/models/heroes/drow/drow_marksmanship_arrow.vmat","ShaderName":"hero.vfx","IntParams":{"F_USE_STATUS_EFFECTS_PROXY":1,"F_MASKS_1":1,"F_MASKS_2":1,"F_MORPH_SUPPORTED":1,"F_MASK_CUBE_MAP_BY_METALNESS":1,"F_SPECULAR_CUBE_MAP":1,"F_DIFFUSE_WARP":1},"FloatParams":{"g_flDiffuseWarpBlendToFull":0,"g_flEnvMapBlendToFull":0,"g_flMetalnessBlendToFull":0,"g_flReflectionsTintByBaseBlendToNone":0,"g_flSelfIllumBlendToFull":0,"g_flSpecularBlendToFull":0,"g_flSpecularExponentBlendToFull":0,"g_flCloakBlurAmount":0.005,"g_flCloakIntensity":0.85,"g_flCloakRefractAmount":0.1,"g_flMaterialCloakFactor":0,"g_flDiffuseModulationAmount":1,"g_flTexCoordRotation":0,"g_flDetail2BlendFactor":0,"g_flFresnelModulatesAlpha":0,"g_flAmbientScale":1,"g_flBloomScale":1,"g_flBloomShift":0,"g_flRimLightScale":1,"g_flCubeMapScalar":4,"g_flSpecularExponent":32,"g_flSpecularScale":3},"VectorParams":{"g_vCloakColorTint":[1,1,1,0],"g_vTexCoordOffset":[0,0,0,0],"g_vTexCoordScale":[1,1,0,0],"g_vDetail2ColorTint":[1,1,1,0],"g_vDetailTexCoordScale":[0.5,0.5,0,0],"TextureDetail2":[0,0,0,1],"g_vBloomColor":[1,1,1,0],"TextureDetailMask":[0,0,0,0],"TextureDiffuseWarpMask":[0,0,0,0],"TextureSelfIllumMask":[0,0,0,0],"TextureRimMask":[1,1,1,0],"TextureSpecularExponent":[0.603,0.603,0.603,0],"TextureSpecularMask":[0.214,0.214,0.214,0],"TextureTintByBaseMask":[0,0,0,0],"TextureNormal":[0.501961,0.501961,1,0],"g_vRimLightColor":[1,1,1,0],"g_vSpecularColor":[0.317647,0.352941,0.752941,0]},"TextureParams":{"g_tMasks1":"materials/models/heroes/drow/drow_marksmanship_arrow_metalnessmask_psd_d00e901e.vtex","g_tCubeMap":"materials/cubemaps/blue_day_cube_psd_3e67c8f2.vtex","g_tColor":"materials/models/heroes/drow/drow_marksmanship_arrow_color_psd_7886da.vtex","g_tDiffuseWarp":"materials/models/heroes/chen/chen_weapon_diffusewarp_psd_3017cc43.vtex","g_tMasks2":"materials/models/heroes/drow/drow_marksmanship_arrow_vmat_g_tmasks2_16c18594.vtex","g_tFresnelWarp":"materials/models/heroes/sven/sven_fresnelwarprim_tga_574afdef.vtex","g_tNormal":"materials/models/heroes/drow/drow_marksmanship_arrow_vmat_g_tnormal_5a28bd86.vtex","g_tDetail2":"materials/models/heroes/drow/drow_marksmanship_arrow_vmat_g_tdetail2_b4a7ae27.vtex"}}},"name":"drow_marksmanship_arrow","emissiveTexture":{"index":0},"normalTexture":{"index":3},"occlusionTexture":{"index":4},"pbrMetallicRoughness":{"baseColorTexture":{"index":1},"metallicRoughnessTexture":{"index":4}}}],"meshes":[{"extras":{},"name":"models/heroes/drow/drow_marksmanship_arrow.vmdl_c.drow_marksmanship_arrow_model","primitives":[{"attributes":{"POSITION":0,"TEXCOORD_0":1,"NORMAL":2,"TANGENT":3,"JOINTS_0":4,"WEIGHTS_0":5},"indices":6,"material":0}]}],"nodes":[{"name":"models/heroes/drow/drow_marksmanship_arrow.vmdl_c","children":[1],"matrix":[3.027916E-09,0,0.025399996,0,0.025399996,3.027916E-09,0,0,0,0.025399996,3.027916E-09,0,0,0,0,1]},{"name":"arrow_root","rotation":[0.5,0.5,0.5,0.5]},{"name":"models/heroes/drow/drow_marksmanship_arrow.vmdl_c.drow_marksmanship_arrow_model","mesh":0,"skin":0}],"samplers":[{"magFilter":9729,"minFilter":9987}],"scenes":[{"name":"drow_marksmanship_arrow.vmdl_c","nodes":[0,2]}],"skins":[{"inverseBindMatrices":7,"joints":[1]}],"textures":[{"name":"drow_marksmanship_arrow_metalnessmask_psd_d00e901e.vtex","sampler":0,"source":0},{"name":"drow_marksmanship_arrow_color_psd_7886da.vtex","sampler":0,"source":1},{"name":"drow_marksmanship_arrow_vmat_g_tmasks2_16c18594.vtex","sampler":0,"source":2},{"name":"drow_marksmanship_arrow_vmat_g_tnormal_5a28bd86.vtex","sampler":0,"source":3},{"name":"drow_marksmanship_arrow_metalnessmask_psd_d00e901e_orm_1864826377.png","sampler":0,"source":4}]}