{"asset":{"copyright":"","generator":"Source 2 Viewer 17.0.0.0 - https://valveresourceformat.github.io","version":"2.0"},"extensionsUsed":["KHR_materials_specular"],"accessors":[{"bufferView":0,"componentType":5126,"count":2646,"max":[16.839963912963867,28.873502731323242,77.45806884765625],"min":[-11.475801467895508,-28.87347984313965,1.8330347537994385],"type":"VEC3"},{"bufferView":1,"componentType":5126,"count":2646,"max":[0.9921567440032959,0.9910885691642761],"min":[-0.001037629321217537,0.012176885269582272],"type":"VEC2"},{"bufferView":2,"componentType":5126,"count":2646,"max":[0.9997313618659973,0.9997313618659973,0.9998700022697449],"min":[-0.998566746711731,-0.9998700022697449,-1],"type":"VEC3"},{"bufferView":3,"componentType":5126,"count":2646,"type":"VEC4"},{"bufferView":4,"componentType":5123,"count":2646,"type":"VEC4"},{"bufferView":5,"componentType":5126,"count":2646,"type":"VEC4"},{"bufferView":6,"componentType":5125,"count":9456,"type":"SCALAR"},{"name":"Bind Matrices","bufferView":7,"componentType":5126,"count":17,"type":"MAT4"}],"bufferViews":[{"buffer":0,"byteLength":31752,"byteOffset":122496,"target":34962},{"buffer":0,"byteLength":21168,"byteOffset":186000,"target":34962},{"buffer":0,"byteLength":31752,"byteOffset":154248,"target":34962},{"buffer":0,"byteLength":42336,"target":34962},{"buffer":0,"byteLength":21168,"byteOffset":207168,"byteStride":8,"target":34962},{"buffer":0,"byteLength":42336,"byteOffset":42336,"target":34962},{"buffer":0,"byteLength":37824,"byteOffset":84672,"target":34963},{"buffer":0,"byteLength":1088,"byteOffset":228336}],"buffers":[{"byteLength":229424,"uri":"drow_legs.bin"}],"images":[{"name":"drow_legs_color_psd_6de3cd93.vtex","uri":"drow_legs_color_psd_6de3cd93.png"},{"name":"drow_legs_metalnessmask_psd_1aff7e41.vtex","uri":"drow_legs_metalnessmask_psd_1aff7e41.png"},{"name":"drow_legs_specmask_psd_d4ebf347.vtex","uri":"drow_legs_specmask_psd_d4ebf347.png"},{"name":"drow_legs_normal_psd_1ef17b70.vtex","uri":"drow_legs_normal_psd_1ef17b70.png"},{"name":"drow_legs_metalnessmask_psd_1aff7e41_orm_3220692425.png","uri":"drow_legs_metalnessmask_psd_1aff7e41_orm_3220692425.png"}],"materials":[{"extensions":{"KHR_materials_specular":{"specularColorFactor":[0.686275,0.839216,1],"specularTexture":{"index":2}}},"extras":{"vmat":{"Name":"materials/models/heroes/drow/drow_legs.vmat","ShaderName":"hero.vfx","IntParams":{"F_ALPHA_TEST":1,"F_DIFFUSE_WARP":1,"F_MASKS_1":1,"F_MASKS_2":1,"F_MORPH_SUPPORTED":1,"F_SPECULAR_CUBE_MAP":1,"F_USE_STATUS_EFFECTS_PROXY":1},"FloatParams":{"g_flAlphaTestReference":0.5,"g_flAmbientScale":1,"g_flBloomScale":0.089,"g_flBloomShift":0,"g_flCloakBlurAmount":0.005,"g_flCloakIntensity":0.85,"g_flCloakRefractAmount":0.1,"g_flCubeMapScalar":3,"g_flDetail2BlendFactor":0,"g_flDiffuseModulationAmount":1,"g_flDiffuseWarpBlendToFull":0,"g_flEnvMapBlendToFull":0,"g_flFresnelModulatesAlpha":0,"g_flMaterialCloakFactor":0,"g_flMetalnessBlendToFull":0,"g_flReflectionsTintByBaseBlendToNone":0,"g_flRimLightScale":2,"g_flSelfIllumBlendToFull":0,"g_flSpecularBlendToFull":0,"g_flSpecularExponent":40,"g_flSpecularExponentBlendToFull":0,"g_flSpecularScale":10,"g_flTexCoordRotation":0},"VectorParams":{"g_vBloomColor":[1,1,1,0],"g_vCloakColorTint":[1,1,1,0],"g_vDetail2ColorTint":[1,1,1,0],"g_vDetailTexCoordScale":[1,1,0,0],"g_vRimLightColor":[0.627451,0.886275,0.984314,1],"g_vSpecularColor":[0.686275,0.839216,1,0],"g_vTexCoordOffset":[0,0,0,0],"g_vTexCoordScale":[1,1,0,0],"TextureDetailMask":[0,0,0,0],"TextureDiffuseWarpMask":[0,0,0,0],"TextureSelfIllumMask":[0,0,0,0],"TextureTranslucency":[1,1,1,0]},"TextureParams":{"g_tColor":"materials/models/heroes/drow/drow_legs_color_psd_6de3cd93.vtex","g_tCubeMap":"materials/models/cubemaps/cube_metal_grey_cube_tga_3e998d35.vtex","g_tDetail2":"materials/default/default_detail2_tga_70788555.vtex","g_tDiffuseWarp":"materials/models/heroes/drow/diffusewarp_diffusewarp_psd_b1607356.vtex","g_tFresnelWarp":"materials/default/default_fresnelwarprim_tga_d9279d65.vtex","g_tMasks1":"materials/models/heroes/drow/drow_legs_metalnessmask_psd_1aff7e41.vtex","g_tMasks2":"materials/models/heroes/drow/drow_legs_specmask_psd_d4ebf347.vtex","g_tNormal":"materials/models/heroes/drow/drow_legs_normal_psd_1ef17b70.vtex"}}},"name":"drow_legs","alphaMode":"MASK","emissiveTexture":{"index":1},"normalTexture":{"index":3},"occlusionTexture":{"index":4},"pbrMetallicRoughness":{"baseColorTexture":{"index":0},"metallicRoughnessTexture":{"index":4}}}],"meshes":[{"extras":{},"name":"models/heroes/drow/drow_legs.vmdl_c.drow_legs","primitives":[{"attributes":{"POSITION":0,"TEXCOORD_0":1,"NORMAL":2,"TANGENT":3,"JOINTS_0":4,"WEIGHTS_0":5},"indices":6,"material":0}]}],"nodes":[{"name":"models/heroes/drow/drow_legs.vmdl_c","children":[1],"matrix":[3.027916E-09,0,0.025399996,0,0.025399996,3.027916E-09,0,0,0,0.025399996,3.027916E-09,0,0,0,0,1]},{"name":"root","children":[2,7,12],"translation":[1.234973,0,88.21597]},{"name":"thigh_L","children":[3,6],"rotation":[0.035505507,0.7105719,0.080779284,0.69807],"translation":[0.19442308,8.31019,0.07203674]},{"name":"knee_L","children":[4],"rotation":[1.8662307E-09,0.06196607,-2.7497746E-08,0.9980783],"translation":[40.441692,9.536743E-06,-2.7418137E-06]},{"name":"ankle_L","children":[5],"rotation":[-0.0878785,-0.5193589,-0.003350762,0.8500191],"translation":[37.565807,3.0517578E-05,-4.7683716E-06]},{"name":"toeBase_L","rotation":[0.048022028,-0.26484334,-0.07215413,0.9603883],"translation":[13.820602,5.531311E-05,1.335144E-05]},{"name":"leg_upper_0_l","rotation":[0,6.705518E-08,2.8230701E-08,1],"translation":[-7.6293945E-05,1.5258789E-05,2.3245811E-06]},{"name":"thigh_R","children":[8,11],"rotation":[-0.0807793,-0.6980701,0.035505306,0.71057177],"translation":[0.194422,-8.310188,0.0719223]},{"name":"knee_R","children":[9],"rotation":[-1.5862977E-08,0.061966002,-3.061788E-09,0.9980783],"translation":[-40.44169,5.722046E-06,4.7683716E-07]},{"name":"ankle_R","children":[10],"rotation":[-0.08787837,-0.5193588,-0.0033507221,0.85001916],"translation":[-37.565773,-5.722046E-06,5.2452087E-06]},{"name":"toeBase_R","rotation":[0.048022036,-0.26484346,-0.07215404,0.9603883],"translation":[-13.820583,-3.8146973E-05,-1.4781952E-05]},{"name":"leg_upper_0_r","rotation":[1.583249E-08,2.4214401E-08,2.3341286E-08,1],"translation":[-2.2888184E-05,7.6293945E-06,-2.026558E-06]},{"name":"spine1","children":[13],"rotation":[1.5271326E-08,-0.7080875,-1.5271327E-08,0.7061247],"translation":[1.326796,-1.082745E-13,6.136612]},{"name":"spine2","children":[14,15,16,17],"rotation":[-3.9764216E-15,-0.06087426,5.3218034E-09,0.99814546],"translation":[13.575127,5.933848E-07,-1.9073486E-06]},{"name":"thumb_0_L","rotation":[0.05890079,0.92640513,0.08250135,0.36262622],"translation":[-32.26857,27.328936,0.59909153]},{"name":"thumb_0_R","rotation":[-0.08250146,-0.3626261,0.058900807,0.9264052],"translation":[-32.268684,-27.328876,0.5991411]},{"name":"cape_R2C0","rotation":[0.2706107,0.70926374,0.64911807,-0.048584964],"translation":[-21.076881,27.189342,31.969563]},{"name":"cape_R2C2","rotation":[0.035552848,0.68810314,0.6737609,-0.26701373],"translation":[-21.01735,-26.959824,32.153557]},{"name":"models/heroes/drow/drow_legs.vmdl_c.drow_legs","mesh":0,"skin":0}],"samplers":[{"magFilter":9729,"minFilter":9987}],"scenes":[{"name":"drow_legs.vmdl_c","nodes":[0,18]}],"skins":[{"inverseBindMatrices":7,"joints":[1,2,7,3,8,12,4,9,13,5,6,10,11,14,15,16,17]}],"textures":[{"name":"drow_legs_color_psd_6de3cd93.vtex","sampler":0,"source":0},{"name":"drow_legs_metalnessmask_psd_1aff7e41.vtex","sampler":0,"source":1},{"name":"drow_legs_specmask_psd_d4ebf347.vtex","sampler":0,"source":2},{"name":"drow_legs_normal_psd_1ef17b70.vtex","sampler":0,"source":3},{"name":"drow_legs_metalnessmask_psd_1aff7e41_orm_3220692425.png","sampler":0,"source":4}]}