{"asset":{"copyright":"","generator":"Source 2 Viewer 17.0.0.0 - https://valveresourceformat.github.io","version":"2.0"},"extensionsUsed":["KHR_materials_specular"],"accessors":[{"bufferView":0,"componentType":5126,"count":1732,"max":[13.798521995544434,14.539931297302246,151.871337890625],"min":[-10.834687232971191,-14.307899475097656,115.79949951171875],"type":"VEC3"},{"bufferView":1,"componentType":5126,"count":1732,"max":[0.9963377714157104,0.9960631132125854],"min":[0.005859553813934326,0.011749626137316227],"type":"VEC2"},{"bufferView":2,"componentType":5126,"count":1732,"max":[0.998566746711731,0.999462902545929,0.999462902545929],"min":[-0.9963046908378601,-0.9997313618659973,-0.998566746711731],"type":"VEC3"},{"bufferView":3,"componentType":5126,"count":1732,"type":"VEC4"},{"bufferView":4,"componentType":5123,"count":1732,"type":"VEC4"},{"bufferView":5,"componentType":5126,"count":1732,"type":"VEC4"},{"bufferView":6,"componentType":5125,"count":7404,"type":"SCALAR"},{"name":"Bind Matrices","bufferView":7,"componentType":5126,"count":18,"type":"MAT4"}],"bufferViews":[{"buffer":0,"byteLength":20784,"byteOffset":85040,"target":34962},{"buffer":0,"byteLength":13856,"byteOffset":126608,"target":34962},{"buffer":0,"byteLength":20784,"byteOffset":105824,"target":34962},{"buffer":0,"byteLength":27712,"byteOffset":29616,"target":34962},{"buffer":0,"byteLength":13856,"byteOffset":140464,"byteStride":8,"target":34962},{"buffer":0,"byteLength":27712,"byteOffset":57328,"target":34962},{"buffer":0,"byteLength":29616,"target":34963},{"buffer":0,"byteLength":1152,"byteOffset":154320}],"buffers":[{"byteLength":155472,"uri":"drow_haircowl.bin"}],"images":[{"name":"drow_hood_color_psd_d98e432c.vtex","uri":"drow_hood_color_psd_d98e432c.png"},{"name":"drow_hood_metalnessmask_psd_5c41cbbc.vtex","uri":"drow_hood_metalnessmask_psd_5c41cbbc.png"},{"name":"drow_hood_specmask_psd_b53d1698.vtex","uri":"drow_hood_specmask_psd_b53d1698.png"},{"name":"drow_hood_normal_psd_3283d5fb.vtex","uri":"drow_hood_normal_psd_3283d5fb.png"},{"name":"drow_hood_metalnessmask_psd_5c41cbbc_orm_3079667403.png","uri":"drow_hood_metalnessmask_psd_5c41cbbc_orm_3079667403.png"}],"materials":[{"extensions":{"KHR_materials_specular":{"specularColorFactor":[0.611765,0.788235,1],"specularTexture":{"index":2}}},"extras":{"vmat":{"Name":"materials/models/heroes/drow/drow_haircowl.vmat","ShaderName":"hero.vfx","IntParams":{"F_ALPHA_TEST":1,"F_DIFFUSE_WARP":1,"F_MASKS_1":1,"F_MASKS_2":1,"F_SPECULAR_CUBE_MAP":1,"F_USE_STATUS_EFFECTS_PROXY":1},"FloatParams":{"g_flAlphaTestReference":0.5,"g_flAmbientScale":1,"g_flBloomScale":0,"g_flBloomShift":0,"g_flCloakBlurAmount":0.005,"g_flCloakIntensity":0.85,"g_flCloakRefractAmount":0.1,"g_flCubeMapScalar":3,"g_flDetail2BlendFactor":0,"g_flDiffuseModulationAmount":1,"g_flDiffuseWarpBlendToFull":0,"g_flEnvMapBlendToFull":0,"g_flFresnelModulatesAlpha":0,"g_flMaterialCloakFactor":0,"g_flMetalnessBlendToFull":0,"g_flReflectionsTintByBaseBlendToNone":0,"g_flRimLightScale":5,"g_flSelfIllumBlendToFull":0,"g_flSpecularBlendToFull":0,"g_flSpecularExponent":40,"g_flSpecularExponentBlendToFull":0,"g_flSpecularScale":10,"g_flTexCoordRotation":0},"VectorParams":{"g_vBloomColor":[1,1,1,0],"g_vCloakColorTint":[1,1,1,0],"g_vDetail2ColorTint":[1,1,1,0],"g_vDetailTexCoordScale":[1,1,0,0],"g_vRimLightColor":[1,1,1,0],"g_vSpecularColor":[0.611765,0.788235,1,0],"g_vTexCoordOffset":[0,0,0,0],"g_vTexCoordScale":[1,1,0,0],"TextureDetailMask":[0,0,0,0],"TextureDiffuseWarpMask":[0,0,0,0]},"TextureParams":{"g_tColor":"materials/models/heroes/drow/drow_hood_color_psd_d98e432c.vtex","g_tCubeMap":"materials/models/cubemaps/cube_metal_grey_cube_tga_3e998d35.vtex","g_tDetail2":"materials/default/default_detail2_tga_70788555.vtex","g_tDiffuseWarp":"materials/models/heroes/drow/diffusewarp_diffusewarp_psd_b1607356.vtex","g_tFresnelWarp":"materials/default/default_fresnelwarprim_tga_d9279d65.vtex","g_tMasks1":"materials/models/heroes/drow/drow_hood_metalnessmask_psd_5c41cbbc.vtex","g_tMasks2":"materials/models/heroes/drow/drow_hood_specmask_psd_b53d1698.vtex","g_tNormal":"materials/models/heroes/drow/drow_hood_normal_psd_3283d5fb.vtex"}}},"name":"drow_haircowl","alphaMode":"MASK","emissiveTexture":{"index":1},"normalTexture":{"index":3},"occlusionTexture":{"index":4},"pbrMetallicRoughness":{"baseColorTexture":{"index":0},"metallicRoughnessTexture":{"index":4}}}],"meshes":[{"extras":{},"name":"models/heroes/drow/drow_haircowl.vmdl_c.drow_haircowl","primitives":[{"attributes":{"POSITION":0,"TEXCOORD_0":1,"NORMAL":2,"TANGENT":3,"JOINTS_0":4,"WEIGHTS_0":5},"indices":6,"material":0}]}],"nodes":[{"name":"models/heroes/drow/drow_haircowl.vmdl_c","children":[1],"matrix":[3.027916E-09,0,0.025399996,0,0.025399996,3.027916E-09,0,0,0,0.025399996,3.027916E-09,0,0,0,0,1]},{"name":"root","children":[2],"translation":[1.234973,0,88.21597]},{"name":"spine1","children":[3],"rotation":[1.5271326E-08,-0.7080875,-1.5271327E-08,0.7061247],"translation":[1.326796,-1.082745E-13,6.136612]},{"name":"spine2","children":[4],"rotation":[-3.9764216E-15,-0.06087426,5.3218034E-09,0.99814546],"translation":[13.575127,5.933848E-07,-1.9073486E-06]},{"name":"spine3","children":[5,15,17],"rotation":[-9.724382E-16,-0.045179322,3.9496992E-09,0.99897885],"translation":[8.001579,3.4704613E-07,-7.6293945E-06]},{"name":"neck1","children":[6],"rotation":[-9.410056E-15,0.13346164,-1.1667589E-08,0.991054],"translation":[8.186356,3.495918E-07,-4.9591064E-05]},{"name":"head","children":[7,10,13],"rotation":[-6.342583E-08,0.6882191,1.90979E-13,0.72550297],"translation":[12.210152,5.329821E-07,2.527237E-05]},{"name":"tresses_0_l","children":[8],"rotation":[-0.012450694,0.62975615,-0.011012466,0.776615],"translation":[4.363996,5.6277614,-5.6703186]},{"name":"tresses_1_l","children":[9],"rotation":[-0.0098280255,0.05798563,0.28217092,0.95755976],"translation":[6.968643,7.748604E-06,0.00025749207]},{"name":"tresses_2_l","rotation":[-0.01665906,-0.07303326,0.4076146,0.9100764],"translation":[5.3805313,0.00074005127,0.00021362305]},{"name":"tresses_0_r","children":[11],"rotation":[0.855034,-0.018722389,-0.5026374,-0.12618226],"translation":[4.4738703,-5.264428,-6.1746063]},{"name":"tresses_1_r","children":[12],"rotation":[0.0045235963,-0.026169231,0.31167665,0.94981706],"translation":[5.7375565,-0.00018692017,-0.0005950928]},{"name":"tresses_2_r","rotation":[0.006230079,0.029946353,0.38894615,0.9207526],"translation":[5.5512543,0.0005226135,-0.0006866455]},{"name":"drow_hair_bangs_0","children":[14],"rotation":[-0.6329632,0.27027237,0.7070339,-0.16252263],"translation":[9.969007,-3.2809114,6.9151917]},{"name":"drow_hair_bangs_1","rotation":[-0.002318307,-0.08351829,0.107099585,0.99073154],"translation":[7.3618927,0.0007019043,-2.0980835E-05]},{"name":"clavicle_L","children":[16],"rotation":[0.5546443,0.43859977,0.5695968,0.4189982],"translation":[7.2428513,2.8498235,1.2899055]},{"name":"bicep_L","rotation":[-0.52646136,0.3535251,0.42741713,0.64433926],"translation":[9.37965,-7.6293945E-05,0.00035858154]},{"name":"clavicle_R","children":[18],"rotation":[0.56959677,0.41899794,-0.55464435,-0.43859994],"translation":[7.2428284,-2.8498216,1.2899208]},{"name":"bicep_R","rotation":[-0.5264615,0.35352504,0.42741725,0.64433914],"translation":[-9.37966,4.196167E-05,-0.00022888184]},{"name":"models/heroes/drow/drow_haircowl.vmdl_c.drow_haircowl","mesh":0,"skin":0}],"samplers":[{"magFilter":9729,"minFilter":9987}],"scenes":[{"name":"drow_haircowl.vmdl_c","nodes":[0,19]}],"skins":[{"inverseBindMatrices":7,"joints":[1,2,3,4,5,6,7,10,15,13,8,11,17,16,14,9,12,18]}],"textures":[{"name":"drow_hood_color_psd_d98e432c.vtex","sampler":0,"source":0},{"name":"drow_hood_metalnessmask_psd_5c41cbbc.vtex","sampler":0,"source":1},{"name":"drow_hood_specmask_psd_b53d1698.vtex","sampler":0,"source":2},{"name":"drow_hood_normal_psd_3283d5fb.vtex","sampler":0,"source":3},{"name":"drow_hood_metalnessmask_psd_5c41cbbc_orm_3079667403.png","sampler":0,"source":4}]}